<?xml version="1.0" encoding="UTF-8" standalone="no"?>
<svg width="784px" height="1019px" viewBox="0 0 784 1019" version="1.1" xmlns="http://www.w3.org/2000/svg" xmlns:xlink="http://www.w3.org/1999/xlink" xmlns:sketch="http://www.bohemiancoding.com/sketch/ns">
    <title>cookie</title>
    <description>Created with Sketch (http://www.bohemiancoding.com/sketch)</description>
    <defs></defs>
    <g id="Page-1" stroke="none" stroke-width="1" fill="none" fill-rule="evenodd" sketch:type="MSPage">
        <rect id="Rectangle-1" fill="#6C3895" sketch:type="MSShapeGroup" x="0" y="0" width="784" height="1019"></rect>
        <g id="Guitarra" sketch:type="MSLayerGroup" transform="translate(0.000000, 356.000000)" fill="#FFFFFF">
            <path d="M330.122622,88.7983432 C344.185485,88.7983412 407.459376,85.8895456 407.459376,85.8895456 C407.459376,85.8895456 416.071629,87.3593616 425.902899,122.460224 C435.734288,157.561085 433.468103,182.224192 423.649549,191.711191 C413.830995,201.19819 419.883662,203.631605 404.519216,207.717287 C389.15477,211.802968 299.229075,219.162327 224.863351,213.439806 C167.473334,209.023584 50.4404417,211.322592 -1.65982783e-11,212.602319 L-9.32543894e-14,86.9031912 C56.0275334,87.2382564 317.569922,88.798345 330.122622,88.7983432 Z" id="Mástil" sketch:type="MSShapeGroup"></path>
            <path d="M483.825506,68.1832412 L483.300738,42.3188769 C483.300738,42.3188769 467.832898,38.095146 463.864986,34.3455186 C458.67373,29.4398458 456.579237,20.7560004 456.579237,20.7560004 C456.579237,20.7560004 458.273901,16.5328247 459.389685,15.3561377 C464.446127,10.0237018 474.739873,4.14388334 474.739873,4.14388334 C474.739873,4.14388334 481.757324,1.72291609 486.298969,0.91717927 C489.228232,0.397496433 497.152598,0.167624349 497.152598,0.167624349 C497.152598,0.167624349 508.690238,-0.280803865 512.816544,0.91717927 C518.340179,2.52084627 526.10242,8.57257471 526.10242,8.57257471 C526.10242,8.57257471 530.482771,12.5616925 531.651937,15.3561379 C532.718973,17.9064796 532.811027,24.606936 532.811027,24.606936 C532.811027,24.606936 529.904533,32.3367323 527.652986,34.3455197 C524.232572,37.3971497 515.79514,39.7881871 515.79514,39.7881871 L500.434273,42.318878 L497.613993,73.249638 L483.825506,68.1832412 Z" id="Clavija-1" sketch:type="MSShapeGroup"></path>
            <path d="M567.026029,64.4787241 L567.176019,41.5929185 L553.195034,35.8721553 C553.195034,35.8721553 547.947455,31.8997622 546.284851,29.7062201 C544.229585,26.9946217 542.041425,21.1567337 542.041425,21.1567337 L542.618159,13.9860184 C542.618159,13.9860184 548.418608,8.39955081 551.859294,6.71974091 C556.846015,4.28512661 567.900382,1.64274523 567.900382,1.64274523 C567.900382,1.64274523 575.94208,0.783631813 579.539788,0.900269057 C583.911643,1.04200408 591.809071,2.41786204 591.809071,2.41786204 C591.809071,2.41786204 601.260383,5.03145953 604.329913,6.71974074 C608.420419,8.96957194 613.289178,14.2321996 613.289178,14.2321996 C613.289178,14.2321996 616.203117,19.9579073 616.416142,22.9126432 C616.654007,26.211932 614.641846,32.9942736 614.641846,32.9942736 C614.641846,32.9942736 610.503578,36.6052641 607.988731,37.7826165 C605.701789,38.8532733 600.236479,39.7383011 600.236479,39.7383011 L582.378185,41.7101102 L583.878482,63.5396176 L567.026029,64.4787241 Z" id="Clavija-2" sketch:type="MSShapeGroup"></path>
            <path d="M655.369843,67.3499204 L656.548901,42.845847 C656.548901,42.845847 650.787591,43.0574024 647.734981,42.8458469 C645.256846,42.6741042 639.956667,41.6959528 639.956667,41.6959528 C639.956667,41.6959528 635.585132,39.3926509 633.946896,37.9536843 C631.792201,36.0610775 628.577876,31.7012325 628.577876,31.7012325 C628.577876,31.7012325 626.603566,27.0131232 626.252436,25.0814746 C625.828419,22.7488665 626.252436,18.9084624 626.252436,18.9084624 C626.252436,18.9084624 627.882379,13.161898 629.642844,11.1293732 C631.524532,8.95689246 637.178894,6.2934461 637.178894,6.2934461 C637.178894,6.2934461 643.134899,4.3869131 646.251613,3.48595812 C649.553381,2.53150918 656.434341,0.727234356 656.434341,0.727234356 C656.434341,0.727234356 666.200382,0.491761049 670.24408,0.727234356 C674.779354,0.991333199 682.171259,2.22595083 682.171259,2.22595083 C682.171259,2.22595083 689.454042,5.33940723 692.324144,7.15783327 C695.288835,9.03618876 699.675638,13.3162954 699.675638,13.3162954 C699.675638,13.3162954 704.616452,17.1610971 705.57841,19.7260505 C706.584042,22.4074568 705.578406,29.0553746 705.578406,29.0553746 C705.578406,29.0553746 703.28372,34.5177684 701.551181,35.8532785 C698.865633,37.9234058 692.324146,39.2722872 692.324146,39.2722872 C692.324146,39.2722872 685.380985,41.661909 682.171259,42.0683689 C678.020963,42.5939368 670.244078,42.0683707 670.244078,42.0683707 L668.342626,66.2259813 L655.369843,67.3499204 Z" id="Clavija-3" sketch:type="MSShapeGroup"></path>
            <path d="M651.037917,217.166904 L650.913909,235.779146 L635.233427,239.697202 C635.233427,239.697202 628.853155,243.118856 626.996165,245.259088 C625.05235,247.499387 623.831015,252.838795 623.831015,252.838795 C623.831015,252.838795 622.258808,256.639479 622.216159,258.852536 C622.165901,261.460462 623.552293,267.301743 623.552293,267.301743 C623.552293,267.301743 626.902251,271.974947 628.744871,273.251777 C631.529642,275.181464 637.434466,276.921293 637.434466,276.921293 C637.434466,276.921293 643.128883,279.299166 646.455535,279.850693 C651.264971,280.648051 661.84273,280.967945 661.84273,280.967945 C661.84273,280.967945 674.190072,279.739026 679.098306,278.00315 C684.243621,276.183425 692.003377,270.301142 692.003377,270.301142 C692.003377,270.301142 698.960062,264.258755 700.458739,260.716198 C701.778515,257.596526 700.458735,250.314454 700.458735,250.314454 C700.458735,250.314454 696.950482,243.595004 694.877208,241.951766 C691.5486,239.313575 684.253091,237.470167 684.253091,237.470167 C684.253091,237.470167 678.149328,235.873178 674.717093,235.519594 C671.837925,235.222987 665.318883,235.519594 665.318883,235.519594 C665.318883,235.519594 664.23386,232.829765 663.917398,230.533834 C663.766698,229.440513 663.917398,225.351839 663.917398,225.351839 L668.043116,213.434467 L651.037917,217.166904 Z" id="Clavija-4" sketch:type="MSShapeGroup"></path>
            <path d="M563.483738,217.27977 C563.483738,217.27977 566.141762,225.044309 566.3556,228.096405 C566.676242,232.67291 565.087178,240.165576 565.087178,240.165576 C565.087178,240.165576 560.152537,242.898571 557.5294,243.694304 C554.584131,244.587756 548.381959,245.233133 548.381959,245.233133 C548.381959,245.233133 541.393886,248.368555 540.072261,249.941248 C537.691632,252.774124 537.275198,258.449838 537.275198,258.449838 C537.275198,258.449838 538.345053,266.777446 540.072261,269.933442 C541.853618,273.188381 547.800895,277.682645 547.800895,277.682645 C547.800895,277.682645 556.381684,282.706561 560.984688,283.778183 C565.109203,284.738408 573.983453,283.778186 573.983453,283.778186 C573.983453,283.778186 592.129224,280.637587 597.751206,277.682645 C602.014018,275.442089 603.637834,268.191692 603.637834,268.191692 C603.637834,268.191692 603.811013,254.872196 602.230835,251.69834 C599.835286,246.886776 591.710652,244.235431 591.710652,244.235431 C591.710652,244.235431 586.538016,243.677509 584.466634,243.104019 C582.836418,242.652672 580.605859,241.160919 580.605859,241.160919 L581.581386,216.104314 L563.483738,217.27977 Z" id="Clavija-5" sketch:type="MSShapeGroup"></path>
            <path d="M481.07529,218.773374 C481.07529,218.773374 481.755472,229.497853 481.707927,234.572623 C481.687497,236.75325 480.871366,240.539567 480.871366,240.539567 C480.871366,240.539567 473.831266,242.959095 470.401966,243.899585 C467.304916,244.748955 461.292318,245.909148 461.292318,245.909148 C461.292318,245.909148 453.722236,248.354164 452.2929,250.192348 C449.888626,253.284342 449.791487,260.699683 449.791487,260.699683 C449.791487,260.699683 451.34937,269.201797 453.593997,272.114859 C456.701254,276.147436 465.847141,281.5366 465.847141,281.5366 C465.847141,281.5366 472.631648,284.596985 478.261692,284.60836 C480.930325,284.613751 488.123472,285.181377 492.502502,284.60836 C499.114662,283.743126 502.831757,281.611319 502.831757,281.611319 C502.831757,281.611319 515.096128,277.746908 518.968507,275.238921 C523.257935,272.460829 527.31718,265.753082 527.31718,265.753082 C527.31718,265.753082 527.476761,258.498051 526.327085,256.446569 C523.575963,251.537468 515.754545,245.173357 515.754545,245.173357 C515.754545,245.173357 510.84303,242.472324 508.423913,241.576596 C505.758451,240.589654 500.36105,239.223323 500.36105,239.223323 C500.36105,239.223323 499.334715,235.944485 499.366233,233.978088 C499.443238,229.173716 500.68662,218.911016 500.68662,218.911016 L481.07529,218.773374 Z" id="Clavija-6" sketch:type="MSShapeGroup"></path>
            <path d="M418.655437,86.8075162 L461.649167,60.5204142 C461.649167,60.5204142 597.405848,61.8360521 619.494344,61.8360541 C641.582841,61.8360561 676.399177,65.5696961 701.932006,62.3268495 C722.796084,102.965218 715.238586,183.419681 703.951276,220.326979 C610.825633,220.326981 474.497898,220.830624 448.658959,224.258481 C443.300819,217.26657 418.897235,200.435634 418.897235,200.435634 L418.655437,86.8075162 Z" id="Clavijero" sketch:type="MSShapeGroup"></path>
        </g>
        <g id="Mano" sketch:type="MSLayerGroup" transform="translate(28.000000, 364.000000)" stroke="#6C3895" stroke-width="3" fill="#FFFFFF">
            <path d="M68.3750683,46.430145 C77.7669716,35.2859526 89.7023513,28.6055381 89.7023513,28.6055381 C89.7023513,28.6055381 115.219679,16.6745103 129.841615,12.3483587 C140.97455,9.05448825 166.966963,5.74547237 166.966963,5.74547237 C166.966963,5.74547237 170.358113,1.39060341 174.444597,0.341638779 C177.375407,-0.410674433 188.018844,0.341638779 188.018844,0.341638779 C188.018844,0.341638779 207.97241,7.53423636 212.829012,13.4661099 C219.065851,21.0838118 221.299168,40.9903649 221.299168,40.9903649 C221.299168,40.9903649 213.347684,69.9892378 208.585161,76.8010632 C202.593208,85.37134 193.02571,103.10677 184.885286,110.983076 C174.304336,121.220725 165.670653,120.555691 165.670653,120.555691 C165.670653,120.555691 150.791291,121.15176 147.454042,119.639634 C138.409061,115.541304 128.523964,103.724324 128.523964,103.724324 C128.523964,103.724324 122.404139,94.1665431 123.228105,87.7540575 C124.314755,79.2972526 134.255812,59.1164524 134.255812,59.1164524 L150.501063,31.6423826 C150.501063,31.6423826 144.640987,37.5934435 141.835535,40.9903656 C139.703975,43.57132 135.690028,49.5760117 135.690028,49.5760117 C135.690028,49.5760117 130.831931,56.5206121 128.523966,61.3353607 C126.084612,66.4242055 121.664543,76.1762463 120.727885,78.6832949 C96.0782839,78.5387782 71.7479631,78.3952727 49.8060599,78.2654309 C54.2693723,66.0185643 60.5585461,55.7050295 68.3750683,46.430145 Z" id="Pulgar" sketch:type="MSShapeGroup"></path>
            <path d="M65.224255,277.898674 C62.0947438,282.573107 52.7862768,287.38168 52.7862768,287.38168 C52.7862768,287.38168 42.1403766,291.276441 37.3358663,290.206282 C32.5382645,289.137663 23.9799406,280.965343 23.9799406,280.965343 C23.9799406,280.965343 12.2434399,258.690109 8.98297344,246.97215 C6.49323859,238.024163 2.19932618,227.332248 0.658944472,216.364382 C-0.592958323,207.45055 0.658944472,197.150809 0.658944472,197.150809 C0.658944472,197.150809 0.668729273,181.826843 2.66485202,176.719098 C5.13359266,170.402002 14.0535338,162.876285 14.0535338,162.876285 C14.0535338,162.876285 25.753586,158.062631 30.1532577,158.782514 C35.3894557,159.63927 38.792472,160.607432 42.9611429,167.606202 C47.1298145,174.604973 47.5662243,197.332205 50.4590534,207.388925 C53.5767441,218.227363 60.9927041,230.291676 60.9927041,230.291676 C60.9927041,230.291676 59.894036,210.522922 60.0349125,202.928298 C60.2105828,193.457927 61.9423453,179.096691 61.9423453,179.096691 C61.9423453,179.096691 62.9785075,165.873915 66.1499599,159.992114 C68.4323034,155.759262 77.9224361,146.432044 77.9224361,146.432044 C77.9224361,146.432044 85.3128083,139.857216 89.6484264,139.046852 C92.6170033,138.492 99.835021,142.336395 99.835021,142.336395 C99.835021,142.336395 108.523575,148.727894 110.546276,152.946922 C113.193197,158.467971 113.843889,171.556627 113.843889,171.556627 C113.843889,171.556627 111.508948,196.853621 112.998875,208.92213 C114.075636,217.643963 121.543951,233.927655 121.543951,233.927655 C121.543951,233.927655 129.605459,253.37522 130.298634,261.180857 C130.907065,268.032226 125.44877,277.898675 125.44877,277.898675 C125.44877,277.898675 118.065111,286.269021 113.843891,287.38168 C107.023042,289.179569 92.0681347,287.38168 92.0681347,287.38168 C92.0681347,287.38168 82.9411025,281.263388 80.4229397,277.898674 C76.0297789,272.028629 71.3341638,259.677405 71.3341638,259.677405 C71.3341638,259.677405 68.2773725,273.338348 65.224255,277.898674 Z" id="Dedos-1" sketch:type="MSShapeGroup"></path>
            <path d="M208.314135,311.528606 C208.314135,311.528606 200.104008,316.138919 196.475879,316.138919 C192.926643,316.13892 186.78204,311.528606 186.78204,311.528606 C186.78204,311.528606 177.50805,305.345341 173.019603,301.209574 C169.544137,298.007193 162.8903,289.514163 162.8903,289.514163 L136.509498,258.515033 L130.76484,227.677705 L121.062419,186.920514 C121.062419,186.920514 119.433301,179.572237 121.062419,176.044091 C122.352346,173.250525 129.819553,167.955376 129.819553,167.955376 C129.819553,167.955376 138.770824,163.92258 144.385698,163.998692 C148.796683,164.058485 159.89713,168.363091 159.89713,168.363091 C159.89713,168.363091 167.872886,172.472368 171.934169,178.441906 C175.275728,183.353545 182.105657,201.006622 182.105657,201.006622 C182.105657,201.006622 186.363071,215.171083 191.379055,224.905678 C193.175764,228.392579 202.543737,240.67111 202.543737,240.67111 C202.543737,240.67111 199.382928,219.201254 197.927417,210.860913 C196.095875,200.365843 192.682576,184.164878 192.682576,184.164878 C192.682576,184.164878 189.442492,172.589646 188.607547,165.47345 C188.084149,161.01255 188.607545,149.433592 188.607545,149.433592 C188.607545,149.433592 200.678355,143.797546 208.314136,142.71557 C211.268861,142.29689 220.379062,144.931626 220.379062,144.931626 C220.379062,144.931626 228.677953,147.992542 230.972423,149.433592 C235.628171,152.357653 241.229717,158.026959 241.229717,158.026959 C241.229717,158.026959 247.922249,179.617149 249.68153,187.928396 C252.245639,200.041838 254.199887,219.301027 254.199887,219.301027 C254.199887,219.301027 263.154877,231.235629 267.543315,239.506412 C270.157534,244.433366 275.207857,258.894236 275.207857,258.894236 C275.207857,258.894236 278.933827,271.777077 277.800609,276.742443 C277.329384,278.807188 269.429944,287.661244 259.316738,290.884853 C249.247383,294.094483 236.963056,291.678186 236.963056,291.678186 C236.963056,291.678186 230.967115,290.733575 229.091144,289.51416 C226.137475,287.594222 222.474136,282.260124 222.474136,282.260124 C222.474136,282.260124 219.987411,293.501422 217.87569,298.838854 C217.109124,300.776369 208.314135,311.528606 208.314135,311.528606 Z" id="Path-16" sketch:type="MSShapeGroup"></path>
        </g>
        <g id="Pájaro" sketch:type="MSLayerGroup" transform="translate(88.000000, 33.000000)" fill="#FFFFFF">
            <path d="M196.518675,301.17121 C196.518675,301.17121 196.19985,394.13518 200.487519,411.539628 C201.692053,411.826279 202.576324,411.539628 203.527746,412.136026 C201.684294,420.769107 201.694193,445.696995 213.628768,457.79007 C217.933465,442.052703 218.927702,406.168211 213.628768,406.168211 C213.246163,406.168211 210.015165,406.609936 210.015165,405.233524 C210.015165,398.477579 210.015165,338.369702 206.87653,306.588648 C203.737895,274.807593 196.518675,301.17121 196.518675,301.17121 Z" id="pata-+-garra" stroke="#6C3895" stroke-width="3" sketch:type="MSShapeGroup"></path>
            <path d="M228.007695,453.029776 C224.332134,441.804075 217.623953,419.921682 222.043112,409.36639 C226.462272,398.811099 234.747948,411.728582 234.747948,417.353247 C234.747948,420.88804 235.951918,440.704933 228.007695,453.029776 Z" id="garra-2" stroke="#6C3895" stroke-width="3" sketch:type="MSShapeGroup"></path>
            <path d="M191.741575,453.070631 C188.066015,441.844929 187.043135,442.841192 186.414505,433.664626 C186.112833,429.260891 185.885537,401.347098 189.017349,397.720818 C190.523392,395.976991 194.256588,396.925875 196.76568,398.409442 C199.274772,399.89301 196.169123,406.634044 199.207172,424.76918 C199.686089,427.627995 199.685798,440.745787 191.741575,453.070631 Z" id="garra-1" stroke="#6C3895" stroke-width="3" sketch:type="MSShapeGroup"></path>
            <path d="M261.535527,129.662822 C272.886258,105.650138 267.464029,85.4779437 280.879588,66.9122296 C294.295146,48.3465153 309.544499,47.8044218 322.035195,51.95019 C327.146534,53.6466875 337.807712,57.5451151 342.696034,58.313792 C349.753413,59.4235479 351.389871,57.9429518 362.42469,66.9122304 C372.97858,75.4905994 372.020345,106.426615 362.424686,136.611945 C355.038076,159.848212 342.095467,181.379542 328.036896,199.672209 C338.464837,209.161163 352.611732,221.636588 358.46452,231.123317 C339.320302,245.448849 309.061688,248.327615 297.942817,248.327617 C288.032497,265.029201 254.442213,316.290652 153.368524,311.611769 C52.2948349,306.932879 4.62137353,199.672207 0.627867604,168.687173 C-3.36563875,137.70214 21.9697509,83.7672227 37.7844554,71.040507 C37.7844562,66.9122339 21.8121904,21.667033 75.7621542,3.24846969 C129.71212,-15.1700904 139.033224,45.295391 139.033224,45.295391 L141.47517,55.0573094 C141.47517,55.0573094 241.644118,108.060254 261.535527,129.662822 Z M104.440943,65.865956 L113.613406,61.0741553 C113.613406,61.0741553 120.160884,56.8747114 120.160883,65.7806217 C120.160882,74.686532 119.525242,81.8483832 119.525242,81.8483832 C119.525242,81.8483832 114.013944,74.6374032 110.549466,70.9666481 C108.985845,69.3099274 104.440943,65.865956 104.440943,65.865956 Z" id="cuerpo" sketch:type="MSShapeGroup"></path>
        </g>
        <g id="Letras" sketch:type="MSLayerGroup" transform="translate(357.000000, 666.000000)" fill="#FFFFFF">
            <path d="M307.538617,289.678479 C307.191483,278.569105 309.422484,245.61675 309.422484,245.61675 C309.422484,245.61675 321.839088,242.353202 328.051834,241.818979 C336.561159,241.087278 353.588696,241.818979 353.588696,241.818979 C353.588696,241.818979 354.085026,251.618084 352.556822,255.915567 C352.061614,257.308147 347.518459,258.889169 347.518459,258.889169 C347.518459,258.889169 345.675596,256.538984 343.97476,255.915567 C341.838089,255.132402 336.005939,254.669424 336.005939,254.669424 C336.005939,254.669424 330.022139,255.293707 327.019958,256.980394 C325.765995,257.684896 323.237508,261.842991 323.237508,261.842991 C323.237508,261.842991 321.492966,264.994996 321.368358,266.881961 C321.213875,269.221335 322.400233,274.522009 322.400233,274.522009 C322.400233,274.522009 329.239972,275.573937 332.656842,275.532441 C335.031118,275.503607 339.773672,274.311022 339.773672,274.311022 C339.773672,274.311022 340.719717,278.228932 340.610946,280.385148 C340.510398,282.378349 339.145717,286.759272 339.145717,286.759272 C339.145717,286.759272 331.434744,288.148405 328.051833,289.678479 C325.992462,290.609924 322.818871,294.143827 322.818871,294.143827 C322.818871,294.143827 321.845816,299.875206 322.400234,303.181663 C322.683091,304.868572 325.330693,309.123925 325.330693,309.123925 C325.330693,309.123925 337.196868,311.585854 343.12277,311.410172 C346.685975,311.304536 353.798015,308.279975 353.798015,308.279975 C353.798015,308.279975 354.252482,316.279339 353.798014,319.638673 C353.415208,322.4683 351.286192,326.846857 351.286192,326.846857 C351.286192,326.846857 336.915724,329.08528 329.307746,328.922117 C326.864347,328.869716 323.17099,328.289601 319.816999,327.660165 C313.970687,328.292884 306.849436,328.949043 302.084212,328.998403 C297.004184,329.051024 287.820252,327.789734 283.968273,327.223226 C277.736133,327.948314 268.239957,328.937361 262.346961,328.998403 C255.804476,329.066172 242.455075,326.954632 242.455075,326.954632 C242.455075,326.954632 240.852671,319.400547 240.520258,315.968282 C240.307257,313.768966 239.233967,301.921933 239.065145,293.646509 C238.782764,279.80455 239.49438,267.131384 239.749994,261.736001 C240.243255,251.324485 242.455075,241.926173 242.455075,241.926173 C242.455075,241.926173 248.965736,241.063251 252.284148,241.000403 C253.316023,240.98086 255.505937,241.678997 255.505937,241.678997 C255.505937,241.678997 254.555232,251.112622 254.276356,256.550542 C254.145372,259.104638 254.276355,265.655044 254.276355,265.655044 C254.276355,265.655044 255.097286,286.170961 255.505938,293.646509 C255.719609,297.555239 255.30092,301.407053 255.505938,304.94503 C255.695342,308.213563 256.517206,311.327128 256.517206,311.327128 C256.517206,311.327128 268.669339,309.307629 274.639981,309.066804 C275.111322,309.047793 277.126149,308.967671 279.658808,308.996817 C279.298208,304.383463 278.89979,298.420637 278.802396,293.646509 C278.520015,279.80455 279.231631,267.131384 279.487245,261.736001 C279.980506,251.324485 282.192326,241.926173 282.192326,241.926173 C282.192326,241.926173 288.702987,241.063251 292.021399,241.000403 C293.053275,240.98086 295.243189,241.678997 295.243189,241.678997 C295.243189,241.678997 294.292483,251.112622 294.013607,256.550542 C293.882623,259.104638 294.013606,265.655044 294.013606,265.655044 C294.013606,265.655044 294.834537,286.170961 295.243189,293.646509 C295.45686,297.555239 295.038172,301.407053 295.243189,304.94503 C295.432593,308.213563 296.254457,311.327128 296.254457,311.327128 C296.254457,311.327128 303.325695,310.151997 309.330263,309.487661 C308.49695,303.206922 307.737268,296.035949 307.538617,289.678479 Z" id="E" sketch:type="MSShapeGroup"></path>
            <path d="M222.028516,296.204565 C221.908584,302.925984 222.042016,320.508901 224.964679,328.415308 C226.413983,332.335975 231.046862,330.696644 231.740442,330.456837 C234.240652,329.592384 237.171639,321.383386 237.171639,321.383386 C237.171639,321.383386 237.813006,299.077583 237.849215,294.616712 C237.974762,279.149583 239.040641,258.853465 238.998801,247.207942 C238.977437,241.261943 237.849215,237.907657 237.849215,237.907657 C237.849215,237.907657 235.153413,236.980532 234.029909,237.000312 C230.858568,237.056145 224.964679,238.134493 224.964679,238.134493 C224.964679,238.134493 222.372586,276.921549 222.028516,296.204565 Z" id="I" sketch:type="MSShapeGroup"></path>
            <path d="M155.841949,275.430452 C155.101894,267.317231 155,243.481096 155,243.481096 L173.308323,243.481096 C173.308323,243.481096 170.990854,258.727622 170.589056,267.626597 C170.366706,272.551185 171.435881,284.951783 171.435881,284.951783 C171.435881,284.951783 173.890364,292.97544 177.038579,296.613761 C178.467445,298.265068 185.167124,300.820668 185.167124,300.820668 C185.167124,300.820668 191.00275,302.484708 192.652017,301.691803 C194.816984,300.65097 196.609826,295.319454 196.609826,295.319454 C196.609826,295.319454 199.725941,282.273659 200.340081,275.430452 C201.320984,264.500507 201.394956,242 201.394956,242 L217.830837,242 C217.830837,242 218.562043,259.702927 216.984013,275.430452 C216.481551,280.43827 211.589363,304.20603 211.589363,304.20603 C211.589363,304.20603 208.955642,313.063212 206.799356,317.959066 C205.973605,319.833937 202.64325,324.518203 202.64325,324.518203 C202.64325,324.518203 196.537536,325.964017 192.652017,325.999299 C188.770368,326.034545 179.341748,324.729788 179.341748,324.729788 C179.341748,324.729788 170.675572,318.968989 166.853924,314.150528 C164.29865,310.928753 160.210981,300.609083 160.210981,300.609083 C160.210981,300.609083 156.838888,286.359893 155.841949,275.430452 Z" id="U" sketch:type="MSShapeGroup"></path>
            <path d="M138.817202,278.660379 C141.134714,279.402727 146.759081,278.660377 146.759081,278.660377 L148,256.153464 C148,256.153464 142.701392,245.679101 140.306302,243.033449 C135.834975,238.094354 127.400749,233.399223 127.400749,233.399223 C127.400749,233.399223 113.436922,231.09751 106.056947,232.398315 C101.275919,233.241026 90.9177377,239.829769 90.9177377,239.829769 C90.9177377,239.829769 82.0664868,248.435211 79.5012853,256.153464 C77.7646353,261.378747 78.0121828,278.660377 78.0121828,278.660377 C78.0121828,278.660377 78.2063479,294.935945 80.4940203,305.854944 C81.3500086,309.940553 87.4431652,323.674203 87.4431652,323.674203 C87.4431652,323.674203 93.5146203,333.001868 98.8596179,335.298652 C102.531963,336.876685 114.495194,335.298653 114.495194,335.298653 C114.495194,335.298653 126.459929,330.981403 131.619873,326.135899 C135.063632,322.901998 140.306304,311.060439 140.306304,311.060439 C140.306304,311.060439 144.527114,302.596422 145.518165,297.940423 C146.2644,294.434575 145.518163,286.574896 145.518163,286.574896 C145.518163,286.574896 144.636618,284.806837 140.306302,284.348937 C135.718854,283.863849 127.526586,284.678627 122.188891,284.348937 C118.412119,284.11566 116.044002,282.215148 113.254276,283.100701 C107.814537,284.827456 111.680292,296.542902 110.027885,297.940423 C108.816765,298.964728 127.400749,301.897681 127.400749,301.897681 C127.400749,301.897681 123.129628,311.755404 120.451605,314.523045 C118.66232,316.372207 113.254275,317.490985 113.254275,317.490985 C113.254275,317.490985 108.595086,316.270991 106.056947,311.060439 C104.45869,307.779371 100.845088,292.016128 100.845088,292.016128 C100.845088,292.016128 100.489382,277.855623 101.837823,270.981594 C102.640308,266.890716 107.297865,259.121409 107.297865,259.121409 C107.297865,259.121409 110.580782,256.686321 113.254276,256.153464 C115.544458,255.697006 122.188891,256.153464 122.188891,256.153464 C122.188891,256.153464 127.356722,262.451921 128.889849,265.045705 C130.914022,268.470253 132.860791,274.208461 132.860791,274.208461 C132.860791,274.208461 136.50195,277.918755 138.817202,278.660379 Z" id="G" sketch:type="MSShapeGroup"></path>
            <path d="M65.9806895,314.57991 C68.2260824,317.352604 74.2936885,322.458803 74.2936885,322.458803 C74.2936885,322.458803 72.6315994,325.739142 70.6336758,326.691342 C68.0566443,327.919541 60.5688233,329 60.5688233,329 C60.5688233,329 58.1129496,328.423854 57.102117,327.653284 C55.0844582,326.115197 51.4833491,322.074027 51.4833491,322.074027 C51.4833491,322.074027 45.9783293,324.573169 43.0744536,324.767459 C38.3104468,325.086205 28.4797016,323.613132 28.4797016,323.613132 C28.4797016,323.613132 22.6072262,322.882844 20.7602199,322.074028 C18.9778433,321.293515 11.3497642,319.123758 8.57275699,314.57991 C4.18810704,307.405573 4.79018197,296.71974 5.48889093,294.562521 C6.84999192,290.36021 14.0368076,283.332549 16.3141373,281.480127 C20.7381504,277.881552 30.7993972,271.283556 30.7993972,271.283556 C30.7993972,271.283556 28.255983,260.774255 28.4797007,256.671076 C28.7070348,252.501565 32.1525529,246.465485 32.1525529,246.465485 C32.1525529,246.465485 35.5319228,240.805992 37.5689518,239.54853 C40.6223657,237.663652 47.4238819,237.038466 47.4238819,237.038466 C47.4238819,237.038466 54.0903535,236.671922 56.3107622,238.201813 C58.2786927,239.557744 59.9888994,245.695933 59.9888994,245.695933 C59.9888994,245.695933 61.2173562,255.527703 59.988899,258.594957 C57.5445055,264.698205 48.9703456,273.207438 48.9703456,273.207438 C48.9703456,273.207438 48.652586,278.828875 49.7518823,283 C50.7145378,286.652659 55.1562003,296.678791 55.1562003,296.678791 C55.1562003,296.678791 59.5923701,296.634049 61.3503595,295.533479 C63.5874013,294.133003 67.141294,289.175654 67.141294,289.175654 C67.141294,289.175654 72.2981598,288.825176 74.2936879,289.175652 C75.5843951,289.40234 77,290.907147 77,290.907147 C77,290.907147 75.8335326,297.387541 74.2936879,299.573632 C71.4518859,303.608091 63.8550586,309.568797 63.8550586,309.568797 C63.8550586,309.568797 64.746539,313.055935 65.9806895,314.57991 Z M35.8684315,286 C35.8684315,286 39.1118902,296.597149 41.3147581,301.478602 C42.4890796,304.080844 46,308.451084 46,308.451084 C46,308.451084 41.5067438,309.840089 38.5870288,309.968507 C37.2172667,310.028754 30.8826466,310.117379 28.8451354,309.017078 C27.5054572,308.293622 23,303.545805 23,303.545805 C23,303.545805 23.6617847,297.970416 24.363865,295.621893 C25.0905957,293.190913 27.2864328,289.207298 27.2864328,289.207298 L35.8684315,286 Z" id="Y" sketch:type="MSShapeGroup"></path>
            <path d="M288.521425,222.645174 C291.593516,229.235731 301.489317,224.083242 301.489317,224.083242 C301.489317,224.083242 303.447434,212.330596 304.676818,208.316379 C306.324836,202.935226 310.121524,195.897133 310.121524,195.897133 C310.121524,195.897133 319.138365,193.624146 322.786173,193.308609 C329.113361,192.761306 340.04651,193.308612 340.04651,193.308612 C340.04651,193.308612 342.093693,201.719882 342.598125,205.675991 C343.340567,211.498736 343.787133,222.645175 343.787133,222.645175 C343.787133,222.645175 348.409552,225.12283 351.265849,225.806157 C352.813841,226.176491 357,225.806157 357,225.806157 C357,225.806157 356.262848,204.190956 355.290158,193.308609 C355.096385,191.14071 351.318252,170.811146 346.777208,157.732613 C343.091374,147.117143 337.874132,134.206841 332.69578,129.458447 C329.165246,126.221051 320.78256,129.371114 319.384624,129.458447 C316.694501,129.626505 314.725368,129.458447 314.725368,129.458447 C314.725368,129.458447 310.108535,140.463511 307.77606,147.219409 C305.453649,153.946153 301.579058,166.466286 298.489211,175.840118 C296.887143,180.700396 285.449333,216.054618 288.521425,222.645174 Z M317.467365,161.723698 C316.625588,166.512328 316,178.711081 316,178.711081 C316,178.711081 322.618624,179.9692 326.5,179.999701 C329.244429,180.021268 335.877413,178.867286 335.877413,178.867286 C335.877413,178.867286 337.853375,175.264578 336.562202,168.909135 C335.890689,165.603793 332.462671,159.079285 331.397206,157.193749 C329.45067,153.748993 320.695452,152 320.695452,152 C320.695452,152 318.190738,157.608635 317.467365,161.723698 Z" id="A-#4" sketch:type="MSShapeGroup"></path>
            <path d="M141.350468,139.890003 C145.571398,139.279067 158.856453,139.222366 158.856453,139.222366 C158.856453,139.222366 165.597654,148.90484 167.215899,152.541709 C169.519767,157.719461 170.818839,165.675042 172.847893,172.254765 C174.582685,177.880268 176.532047,178.946784 176.532047,178.946784 C176.532047,178.946784 177.516917,182.587496 180.851936,172.254765 C182.307941,167.743693 181.979963,159.724928 183.519953,153.56092 C185.50735,145.606103 189.205114,139.890003 189.205114,139.890003 C189.205114,139.890003 195.978178,138.265531 200.688729,139.890003 C202.607165,140.551592 204.953454,144.15148 205.159947,144.877189 C205.875385,147.391557 206.792628,149.753436 207.733179,152.214542 C213.001005,133.361817 218.391371,116 218.391371,116 L237.010501,116 L268.204147,198.577374 C268.204147,198.577374 271.317619,204.609124 273.664956,210.464033 C273.030786,203.16935 273.012847,195.413389 273.083749,191.453135 C273.4267,172.297516 276.010357,133.766714 276.010357,133.766714 C276.010357,133.766714 281.885064,132.695489 285.046084,132.640026 C286.165932,132.620377 288.85296,133.541376 288.85296,133.541376 C288.85296,133.541376 289.977511,136.873501 289.998804,142.780217 C290.040509,154.348802 288.978099,174.510831 288.85296,189.875773 C288.816869,194.307172 288.177589,216.465608 288.177589,216.465608 C288.177589,216.465608 285.256141,224.620372 282.764068,225.479114 C282.224443,225.665063 279.292462,226.698092 277.344676,225.290179 C277.340405,225.745621 277.300343,226.070221 277.232158,226.247288 C275.669261,230.305912 262.921381,234.245947 259.451563,230.003708 C256.494659,226.388562 247.391519,198.971869 243.799215,195.95698 C242.651739,194.993945 236.908916,192.133951 231.512376,192.506883 C225.766441,192.90396 220.329077,196.624438 218.391372,198.577374 C216.576215,200.406799 215.12205,209.522809 215.12205,209.522809 C215.12205,209.522809 214.638295,218.578369 213.67407,221.321575 C212.920501,223.465472 209.165786,227.610488 205.453113,230.003708 C202.234726,232.078307 199.018893,232.600083 198.173867,232.266138 C197.72958,232.090561 195.968977,229.166662 195.826147,224.808432 C195.737556,222.105221 195.800418,218.844305 195.973908,215.329958 C195.832472,212.783351 195.748051,209.80982 195.859518,206.971902 C196.220322,197.78596 197.820319,188.30655 197.74519,181.538515 C197.656012,173.504854 195.859517,161.922034 195.859517,161.922034 C195.859517,161.922034 193.311015,175.94513 191.709924,182.574115 C190.865335,186.070962 188.522478,192.29953 188.522478,192.29953 C188.522478,192.29953 186.280414,196.746583 184.467604,198.625921 C183.167731,199.973497 179.184428,201.980271 179.184428,201.980271 C179.184428,201.980271 171.263118,197.55584 167.215899,193.62052 C163.48141,189.989284 155.839304,179.280603 155.839304,179.280603 C155.839304,179.280603 156.585367,195.347101 155.839304,203.113522 C154.917858,212.705671 150.836777,231.356311 150.836777,231.356311 C150.836777,231.356311 150.088159,231.531045 148.98399,231.741179 C145.145381,234.973574 135.596023,237.227524 132.665369,233.644472 C129.708465,230.029327 120.605325,202.612634 117.013021,199.597744 C115.865544,198.634709 110.122721,195.774716 104.726182,196.147648 C98.9802469,196.544725 93.5428824,200.265203 91.6051774,202.218139 C89.7900209,204.047564 88.3358553,213.163574 88.3358553,213.163574 C88.3358553,213.163574 87.8521002,222.219134 86.8878759,224.96234 C86.1343061,227.106236 82.3795914,231.251252 78.6669188,233.644472 C75.4485316,235.719072 72.2326982,236.240848 71.387673,235.906903 C70.9433856,235.731325 69.1827829,232.807427 69.0399524,228.449197 C68.6837214,217.579417 70.7763381,197.692154 72.663399,188.570041 C77.5729413,164.837162 91.6051765,119.640765 91.6051765,119.640765 L110.224306,119.640765 L138.979573,195.763139 C139.280484,172.430654 139.739266,140.123208 141.350468,139.890003 Z M225.955378,177.171524 C229.9777,179.035595 240,177.171524 240,177.171524 C240,177.171524 237.232834,163.969344 235.929057,158.585762 C234.232144,151.578836 230.997929,140 230.997929,140 C230.997929,140 222.804189,150.888353 220.806753,156.430505 C220.063678,158.492267 218.14216,165.658687 219.43759,170.443832 C220.582172,174.671762 224.841093,176.655129 225.955378,177.171524 Z M99.9553781,181.171524 C103.9777,183.035595 114,181.171524 114,181.171524 C114,181.171524 111.232834,167.969344 109.929057,162.585762 C108.232144,155.578836 104.997929,144 104.997929,144 C104.997929,144 96.8041894,154.888353 94.8067534,160.430505 C94.0636777,162.492267 92.1421597,169.658687 93.43759,174.443832 C94.5821715,178.671762 98.8410927,180.655129 99.9553781,181.171524 Z" id="I" sketch:type="MSShapeGroup"></path>
            <path d="M65.1309531,156.411914 C66.0512007,153.905286 65.7523229,148.189682 65.7523229,148.189682 C65.7523229,148.189682 55.4987552,147.762897 50.3746473,148.189682 C46.6334833,148.501283 39.1565071,150.404839 39.1565071,150.404839 C39.1565071,150.404839 37.8130527,169.625228 38.0220884,176.105083 C38.3172387,185.254391 40.6690653,197.292328 40.6690653,197.292328 C40.6690653,197.292328 47.8133501,198.926122 51.1309267,198.995039 C55.7122654,199.090208 64.3658112,197.784585 64.3658112,197.784585 C64.3658112,197.784585 65.6478524,195.230668 65.8783691,193.580209 C66.1520384,191.620783 65.8783695,186.954929 65.8783695,186.954929 C65.8783695,186.954929 61.5956724,188.719089 59.4499974,188.780704 C55.8815635,188.883175 48.7360427,187.447186 48.7360427,187.447186 C48.7360427,187.447186 47.141721,184.965132 46.9713918,183.981195 C46.637535,182.052611 47.2234844,178.709622 47.2234844,178.709622 C47.2234844,178.709622 49.1345435,176.648374 50.374647,176.105083 C52.411753,175.212624 57.055113,174.402373 57.055113,174.402373 C57.055113,174.402373 57.8768908,171.847076 57.9374382,170.684486 C58.0029374,169.426812 57.4332526,167.141581 57.4332526,167.141581 C57.4332526,167.141581 54.5774022,167.83719 53.1476706,167.854008 C51.0901151,167.878212 46.9713914,167.264645 46.9713914,167.264645 C46.9713914,167.264645 46.2569951,164.172878 46.3500212,162.808372 C46.4250572,161.707746 47.4755774,159.869251 47.4755774,159.869251 C47.4755774,159.869251 48.9981708,157.443925 49.753277,157.033004 C51.5611167,156.049197 55.1644152,155.685066 55.1644152,155.685066 C55.1644152,155.685066 58.6763941,155.955111 59.9630447,156.411914 C60.987247,156.77554 62.0969738,158.146351 62.0969738,158.146351 C62.0969738,158.146351 64.8327511,157.224176 65.1309531,156.411914 Z" id="E" sketch:type="MSShapeGroup"></path>
            <path d="M0.0588090682,159.937899 C0.168654208,167.748842 0.548596452,179.119359 0.538465732,184.695993 C0.525869765,191.629696 0.0588090682,202.23056 0.0588090682,202.23056 C0.0588090682,202.23056 2.17890294,202.866941 3.17717277,202.92205 C6.3541808,203.097437 12.5846427,202.92205 12.5846427,202.92205 C12.5846427,202.92205 20.2454776,200.910576 23.988628,197.800461 C26.8751627,195.402092 32.4736979,186.396598 32.4736979,186.396598 C32.4736979,186.396598 36.5693661,179.637191 36.9664005,175.351818 C37.3223574,171.509812 34.7326723,162.014461 34.7326723,162.014461 C34.7326723,162.014461 29.9867551,155.242582 26.7308887,152.351541 C23.9681294,149.898354 16.6767952,145.981777 16.6767952,145.981777 C16.6767952,145.981777 10.5964845,145.220859 7.80448525,145.0672 C5.0571558,144.916 0.0588090663,145.0672 0.0588090663,145.0672 C0.0588090663,145.0672 -0.0735113342,150.528755 0.0588090682,159.937899 Z M10.0000447,174.996717 C9.99231421,179.707351 10.989971,188.993435 10.989971,188.993435 C10.989971,188.993435 14.0410895,189.094285 15.5119218,188.505445 C16.5451084,188.091814 18.5020278,185.98602 18.5020278,185.98602 C18.5020278,185.98602 23.1465817,182.099274 24.2679923,179.4073 C24.840727,178.032437 26.7745767,174.094366 25.6599882,170.6521 C24.6195239,167.438757 20.5895194,164.691961 19.3781228,163.927143 C17.1697209,162.532862 11.0359101,161 11.0359101,161 C11.0359101,161 10.0076273,170.376206 10.0000447,174.996717 Z" id="D-#2" sketch:type="MSShapeGroup"></path>
            <path d="M266.683214,69.3088548 C264.785946,78.4812007 262.682011,98.4779784 263.040168,109.407616 C263.183772,113.789846 264.953897,116.729846 265.400587,116.90639 C266.250183,117.242174 269.483411,116.717525 272.719205,114.631501 C276.451959,112.225102 280.226983,108.05726 280.984628,105.901558 C281.954068,103.143246 282.440439,94.0378187 282.440439,94.0378187 C282.440439,94.0378187 283.90247,84.8716085 285.727445,83.0321099 C287.675631,81.0684193 293.142405,77.3274533 298.919418,76.9281896 C304.345147,76.5532041 310.119032,79.428947 311.272715,80.3972852 C314.884449,83.4287767 324.036826,110.996448 327.009724,114.631501 C330.498309,118.897102 343.315139,114.93537 344.88649,110.854396 C345.251336,109.90685 344.815329,104.75756 342.416182,97.9363723 C340.092912,91.3309117 335.809648,83.0321099 335.809648,83.0321099 L304.447281,0 L285.727444,0 C285.727444,0 271.619311,45.4452835 266.683214,69.3088548 Z M286.43759,55.4438321 C287.582172,59.6717616 291.841093,61.6551291 292.955378,62.171524 C296.9777,64.0355947 307,62.1715244 307,62.1715244 C307,62.1715244 304.232834,48.9693439 302.929057,43.585762 C301.232144,36.5788356 297.997929,25 297.997929,25 C297.997929,25 289.804189,35.8883533 287.806753,41.4305048 C287.063678,43.4922668 285.14216,50.6586869 286.43759,55.4438321 Z" id="A" sketch:type="MSShapeGroup"></path>
            <path d="M195.11126,31.330498 C195.319076,46.1443563 196.037885,67.7091295 196.018719,78.2855032 C195.994889,91.4356305 195.11126,111.540717 195.11126,111.540717 C195.11126,111.540717 199.122249,112.747646 201.010867,112.852164 C207.021423,113.184795 218.808783,112.852164 218.808783,112.852164 C218.808783,112.852164 233.302255,109.0373 240.383891,103.138805 C245.844902,98.5901752 256.436726,81.5107895 256.436726,81.5107895 C256.436726,81.5107895 264.185287,68.6912246 264.936433,60.5637925 C265.609865,53.2772297 260.710461,35.2688051 260.710461,35.2688051 C260.710461,35.2688051 251.731699,22.425587 245.571952,16.9425785 C240.34511,12.2899821 226.550694,4.8619901 226.550694,4.8619901 C226.550694,4.8619901 215.047403,3.41886995 209.765242,3.1274484 C204.567592,2.8406895 195.11126,3.1274484 195.11126,3.1274484 C195.11126,3.1274484 194.860925,13.4855691 195.11126,31.330498 Z M215.000084,59.4937857 C214.985589,68.4103432 216.856196,85.9875731 216.856196,85.9875731 C216.856196,85.9875731 222.577043,86.1784688 225.334853,85.063878 C227.272078,84.2809334 230.941302,80.2949669 230.941302,80.2949669 C230.941302,80.2949669 239.649841,72.937912 241.752485,67.8423902 C242.826363,65.2399692 246.452331,57.7857634 244.362478,51.2700458 C242.411607,45.187648 234.855349,39.9883555 232.58398,38.5406629 C228.443227,35.9014883 216.942331,33 216.942331,33 C216.942331,33 215.014301,50.7478188 215.000084,59.4937857 Z" id="D" sketch:type="MSShapeGroup"></path>
            <path d="M158.928532,105.523203 C161.172444,106.65413 166.006197,106.99176 166.006197,106.99176 C166.006197,106.99176 172.383622,107.199966 175.051031,105.523203 C178.037397,103.645942 182.96752,96.3296873 182.96752,96.3296873 C182.96752,96.3296873 188.855758,86.3675924 190.632359,80.5702752 C191.929631,76.3370804 192.18914,66.2381516 192.18914,66.2381516 L193,44.4807054 L190.63236,25.777896 C190.63236,25.777896 186.998872,17.0169573 184.449437,14.6134455 C180.713126,11.0909922 171.775121,8 171.775121,8 C171.775121,8 159.727469,8.50293527 155.608424,10.7352679 C151.207573,13.120326 146.215431,21.8521719 146.215431,21.8521719 C146.215431,21.8521719 141.219174,36.2626489 140.538507,42.6586893 C139.326866,54.0441334 140.538507,75.1966251 140.538507,75.1966251 C140.538507,75.1966251 142.722251,87.1230445 144.942768,92.0289751 C146.428097,95.3106072 151.656043,99.7593132 151.656043,99.7593132 C151.656043,99.7593132 156.389059,104.243315 158.928532,105.523203 Z M157.102909,42.0552764 C158.080658,38.3815224 162.240878,31.9857124 162.240878,31.9857124 C162.240878,31.9857124 165.887752,25.3416466 168.426323,26.0533514 C169.906214,26.4682486 175.846976,32.1079278 178.084082,39.6499276 C179.992725,46.084571 178.371798,54.3041089 178.084081,57.476908 C177.800356,60.605693 175.446466,72.7743207 173.358974,78.1990832 C171.740221,82.4057318 169.321189,85.9585046 166.653115,85.999899 C164.571827,86.0321897 158.056271,78.3156825 157.102909,75.0638918 C155.737805,70.4077044 155,59.1922977 155,59.1922977 C155,59.1922977 155.667032,47.4503841 157.102909,42.0552764 Z" id="O" sketch:type="MSShapeGroup"></path>
            <path d="M99.5057347,3.43617505 C93.0484919,2.45478119 80,3.43617505 80,3.43617505 L81.5865664,112.448457 C81.5865664,112.448457 89.7708822,113.667556 94.057441,113.883323 C99.2728457,114.145845 110.092457,113.883324 110.092457,113.883324 C110.092457,113.883324 119.595455,109.225164 122.767127,106.759885 C127.456057,103.115272 133.674263,95.553648 133.674263,95.553648 C133.674263,95.553648 136.941955,88.226023 137.565569,84.5192836 C138.239057,80.5160922 137.565569,72.4238559 137.565569,72.4238559 C137.565569,72.4238559 134.06507,66.5760241 132.367565,65.2935366 C128.223091,62.162331 120.039632,59.1827747 120.039632,59.1827747 C120.039632,59.1827747 126.608532,58.015107 129.527215,56.9973425 C131.816218,56.1991516 135.662689,53.7349084 135.662689,53.7349084 C135.662689,53.7349084 139.121634,47.5099083 139.641639,44.1242855 C140.447951,38.8746027 139.641639,27.8289915 139.641639,27.8289915 C139.641639,27.8289915 135.959493,21.7796413 133.674263,19.6453332 C129.42549,15.6771599 120.039632,9.52154375 120.039632,9.52154375 C120.039632,9.52154375 106.395036,4.48323608 99.5057347,3.43617505 Z M112.494741,27.8045882 C108.376883,25.3684281 100.179198,24 100.179198,24 C100.179198,24 99.7760025,30.0995069 100.179198,33.1489388 C100.792939,37.7907582 100.179198,45.3093235 100.179198,45.3093235 C100.179198,45.3093235 104.749778,47 107.487293,47 C110.015459,47 115.976239,45.3093235 115.976239,45.3093235 C115.976239,45.3093235 117.568936,42.0431031 117.846196,40.4392703 C118.192255,38.4374627 117.846196,34.4924023 117.846196,34.4924023 C117.846196,34.4924023 115.282819,29.4540388 112.494741,27.8045882 Z M111.021294,73.2548747 C107.574658,72.6814066 100,73.2548747 100,73.2548747 L100,96 C100,96 109.304745,95.6554729 113.240325,93.8137339 C116.059191,92.4945846 119.697109,90.2694849 119.697109,90.2694849 C119.697109,90.2694849 121.201149,86.0204546 120.977276,83.9230115 C120.703556,81.3585591 118.204327,76.2837982 118.204327,76.2837982 C118.204327,76.2837982 113.642767,73.6910479 111.021294,73.2548747 Z" id="B" sketch:type="MSShapeGroup"></path>
            <path d="M10.6982071,27.0002884 C8.27557174,27.0452821 3.52240747,27.6630554 3.52240747,27.6630554 C3.52240747,27.6630554 1.90764895,34.3913924 1.54753982,41.8450914 C1.36092633,45.7076955 0.841405136,54.7805301 1.04755971,64.6901147 C1.17080943,70.6145656 1.95437394,79.095964 2.10987785,80.6704745 C2.35255829,83.1276644 3.52240741,88.5357021 3.52240741,88.5357021 C3.52240741,88.5357021 13.268253,90.0473733 18.0446508,89.9988566 C24.8822889,89.9294028 38.3645149,88.1817904 38.3645149,88.1817904 C38.3645149,88.1817904 39.5862675,80.950924 40.3533326,78.4811598 C41.3816015,75.170382 43.7505176,70.8401646 43.7505176,70.8401646 C43.7505176,70.8401646 49.3765097,69.4416997 51.6525327,69.2475645 C55.600335,68.9108336 62.4219936,69.2475663 62.4219936,69.2475663 C62.4219936,69.2475663 63.6993183,74.4226362 64.0140553,76.8566494 C64.4772965,80.4391187 64.755928,87.2970136 64.755928,87.2970136 C64.755928,87.2970136 67.6400527,88.8214018 69.4222186,89.2418215 C70.3880767,89.4696711 73,89.2418215 73,89.2418215 C73,89.2418215 72.5400596,75.9429756 71.9331563,69.2475645 C71.8122535,67.9137551 69.454915,55.4059027 66.6215637,47.3592784 C64.3218145,40.8280646 61.0665544,32.8849455 57.8355595,29.9634753 C55.6327085,27.9716537 50.4023928,29.9097436 49.5301607,29.9634753 C47.8516782,30.066874 46.6230524,29.9634751 46.6230524,29.9634751 C46.6230524,29.9634751 43.7424132,36.7343885 42.2870819,40.8909844 C40.838031,45.0296428 38.4205083,52.7327087 36.4926208,58.4999994 C33.3501924,67.9005977 30.4084352,76.2055834 30.4084352,76.2055834 C30.4084352,76.2055834 28.1471795,75.6850318 27.0192765,75.729644 C22.6603576,75.9020529 13.7885878,77.3478303 13.7885878,77.3478303 C13.7885878,77.3478303 13.1885785,75.1188009 13.0503026,72.7788281 C12.9006279,70.2459587 13.2062951,67.4884095 13.0503026,64.6901147 C12.7519625,59.3383014 12.1526352,44.6507705 12.1526352,44.6507705 C12.1526352,44.6507705 12.0570097,39.9612747 12.1526355,38.1327744 C12.3562318,34.2397179 13.0503023,27.4861 13.0503023,27.4861 C13.0503023,27.4861 11.4515367,26.9862973 10.6982071,27.0002884 Z M47.9083689,49.903674 C47.3872688,52.8110565 47,60.217442 47,60.217442 C47,60.217442 51.0972437,60.9813 53.5000001,60.9998187 C55.1989321,61.0129129 59.3050654,60.3122809 59.3050654,60.3122809 C59.3050654,60.3122809 60.5282796,58.1249223 59.7289824,54.2662608 C59.3132834,52.259446 57.1911771,48.2981374 56.5316039,47.1533475 C55.3266051,45.0618887 49.9067084,44 49.9067084,44 C49.9067084,44 48.3561714,47.4052424 47.9083689,49.903674 Z" id="LA" sketch:type="MSShapeGroup"></path>
        </g>
    </g>
</svg>