<?xml version="1.0" encoding="UTF-8" standalone="no"?>
<svg width="1432px" height="1298px" viewBox="0 0 1432 1298" version="1.1" xmlns="http://www.w3.org/2000/svg" xmlns:xlink="http://www.w3.org/1999/xlink" xmlns:sketch="http://www.bohemiancoding.com/sketch/ns">
    <title>Slice 1</title>
    <description>Created with Sketch (http://www.bohemiancoding.com/sketch)</description>
    <defs></defs>
    <g id="Page-1" stroke="none" stroke-width="1" fill="none" fill-rule="evenodd" sketch:type="MSPage">
        <g id="Guitarra" sketch:type="MSLayerGroup" transform="translate(0.000000, 649.000000)">
            <path d="M660.706954,177.908259 C688.852348,177.908255 815.488626,172.080458 815.488626,172.080458 C815.488626,172.080458 832.725175,175.025247 852.401467,245.350132 C872.077995,315.675017 867.542454,365.087767 847.891614,384.095053 C828.240775,403.102339 840.354573,407.977708 809.604194,416.163406 C778.853813,424.349104 598.876651,439.093644 450.041196,427.628524 C335.180896,418.780585 100.95143,423.386666 -3.30260264e-11,425.950611 L7.10542736e-15,174.111306 C112.133427,174.782612 635.583998,177.908263 660.706954,177.908259 Z" id="Mástil" fill="#578FC5" sketch:type="MSShapeGroup"></path>
            <path d="M968.32769,136.605722 L967.27742,84.786241 C967.27742,84.786241 936.320108,76.3239591 928.378735,68.8115477 C917.988961,58.9829892 913.797046,41.5848288 913.797046,41.5848288 C913.797046,41.5848288 917.188744,33.1236593 919.421873,30.7661566 C929.54183,20.0825744 950.143719,8.30230662 950.143719,8.30230662 C950.143719,8.30230662 964.188434,3.45187749 973.278076,1.83757671 C979.140699,0.796387591 995.000515,0.335836854 995.000515,0.335836854 C995.000515,0.335836854 1018.09193,-0.562593007 1026.35031,1.83757671 C1037.40531,5.05053762 1052.94065,17.1752286 1052.94065,17.1752286 C1052.94065,17.1752286 1061.70748,25.1674611 1064.04744,30.766157 C1066.18301,35.875789 1066.36724,49.3002122 1066.36724,49.3002122 C1066.36724,49.3002122 1060.55019,64.7869267 1056.04395,68.81155 C1049.19834,74.9255175 1032.31167,79.7159819 1032.31167,79.7159819 L1001.56845,84.7862433 L995.92395,146.756292 L968.32769,136.605722 Z" id="Clavija-1" fill="#578FC5" sketch:type="MSShapeGroup"></path>
            <path d="M1134.8451,129.183689 L1135.14529,83.3317771 L1107.16377,71.8701778 C1107.16377,71.8701778 1096.66127,63.9114535 1093.33374,59.5166726 C1089.22033,54.0839614 1084.84095,42.3877016 1084.84095,42.3877016 L1085.99522,28.0211105 C1085.99522,28.0211105 1097.60423,16.8285737 1104.49042,13.4630599 C1114.47084,8.58528875 1136.59503,3.29125448 1136.59503,3.29125448 C1136.59503,3.29125448 1152.68967,1.57001321 1159.89012,1.80369695 C1168.63995,2.08766432 1184.44585,4.84420781 1184.44585,4.84420781 C1184.44585,4.84420781 1203.36169,10.0805733 1209.50504,13.4630595 C1217.69178,17.9706161 1227.4361,28.5143367 1227.4361,28.5143367 C1227.4361,28.5143367 1233.26806,39.9858424 1233.6944,45.9056817 C1234.17047,52.5158357 1230.14333,66.1043166 1230.14333,66.1043166 C1230.14333,66.1043166 1221.86101,73.3389677 1216.8278,75.6978036 C1212.25071,77.8428738 1201.31245,79.6160348 1201.31245,79.6160348 L1165.57089,83.5665716 L1168.57358,127.302181 L1134.8451,129.183689 Z" id="Clavija-2" fill="#578FC5" sketch:type="MSShapeGroup"></path>
            <path d="M1311.65629,134.936156 L1314.01605,85.8420304 C1314.01605,85.8420304 1302.48537,86.2658835 1296.37589,85.8420302 C1291.41615,85.4979421 1280.80838,83.5382072 1280.80838,83.5382072 C1280.80838,83.5382072 1272.05919,78.9235217 1268.78043,76.0405394 C1264.46803,72.248685 1258.03488,63.5136973 1258.03488,63.5136973 C1258.03488,63.5136973 1254.0835,54.1210292 1253.38075,50.2509543 C1252.53212,45.5775535 1253.38075,37.8832702 1253.38075,37.8832702 C1253.38075,37.8832702 1256.64291,26.369978 1260.16631,22.2977969 C1263.93231,17.9452126 1275.24895,12.6089745 1275.24895,12.6089745 C1275.24895,12.6089745 1287.16929,8.78921887 1293.40707,6.98414768 C1300.01523,5.07190085 1313.78677,1.45702041 1313.78677,1.45702041 C1313.78677,1.45702041 1333.33251,0.985247575 1341.42556,1.45702041 C1350.50246,1.98614476 1365.2966,4.45971201 1365.2966,4.45971201 C1365.2966,4.45971201 1379.87236,10.6975492 1385.61657,14.3407817 C1391.5501,18.1040835 1400.32984,26.6793147 1400.32984,26.6793147 C1400.32984,26.6793147 1410.21838,34.3824086 1412.14364,39.5213152 C1414.15631,44.8935363 1412.14364,58.2126978 1412.14364,58.2126978 C1412.14364,58.2126978 1407.55105,69.1566518 1404.08355,71.8323579 C1398.7087,75.9798761 1385.61658,78.6823719 1385.61658,78.6823719 C1385.61658,78.6823719 1371.72055,83.4700001 1365.2966,84.2843462 C1356.99021,85.3373259 1341.42556,84.2843496 1341.42556,84.2843496 L1337.62,132.684335 L1311.65629,134.936156 Z" id="Clavija-3" fill="#578FC5" sketch:type="MSShapeGroup"></path>
            <path d="M1302.98638,435.095798 L1302.73819,472.385587 L1271.35529,480.235447 C1271.35529,480.235447 1258.58582,487.090761 1254.86925,491.378734 C1250.9789,495.867193 1248.53452,506.564743 1248.53452,506.564743 C1248.53452,506.564743 1245.38791,514.179447 1245.30255,518.613326 C1245.20196,523.838328 1247.97669,535.541387 1247.97669,535.541387 C1247.97669,535.541387 1254.68129,544.904193 1258.3691,547.462333 C1263.94254,551.328477 1275.76045,554.814239 1275.76045,554.814239 C1275.76045,554.814239 1287.15725,559.57833 1293.8152,560.683318 C1303.4408,562.280831 1324.61111,562.921742 1324.61111,562.921742 C1324.61111,562.921742 1349.32307,560.459593 1359.1464,556.981749 C1369.44423,553.335916 1384.97459,541.550709 1384.97459,541.550709 C1384.97459,541.550709 1398.89769,529.444733 1401.89714,522.34719 C1404.53854,516.096899 1401.89713,501.507205 1401.89713,501.507205 C1401.89713,501.507205 1394.87572,488.044727 1390.72627,484.752486 C1384.0644,479.466846 1369.46318,475.773563 1369.46318,475.773563 C1369.46318,475.773563 1357.24712,472.573981 1350.37785,471.865573 C1344.61548,471.271317 1331.56828,471.865573 1331.56828,471.865573 C1331.56828,471.865573 1329.39672,466.476476 1328.76335,461.876559 C1328.46174,459.68608 1328.76335,451.494386 1328.76335,451.494386 L1337.02056,427.617827 L1302.98638,435.095798 Z" id="Clavija-4" fill="#578FC5" sketch:type="MSShapeGroup"></path>
            <path d="M1127.75557,435.321926 C1127.75557,435.321926 1133.07533,450.878246 1133.50331,456.993149 C1134.14504,466.162217 1130.96469,481.173838 1130.96469,481.173838 C1130.96469,481.173838 1121.0885,486.649417 1115.83856,488.243676 C1109.9439,490.033715 1097.53089,491.326733 1097.53089,491.326733 C1097.53089,491.326733 1083.54497,497.608579 1080.89987,500.759484 C1076.13528,506.435174 1075.30183,517.806518 1075.30183,517.806518 C1075.30183,517.806518 1077.44304,534.490952 1080.89987,540.814019 C1084.46507,547.335319 1096.36794,556.339615 1096.36794,556.339615 C1096.36794,556.339615 1113.54152,566.405075 1122.75397,568.552079 C1131.00877,570.475898 1148.76968,568.552085 1148.76968,568.552085 C1148.76968,568.552085 1185.0866,562.259868 1196.33843,556.339615 C1204.87001,551.850642 1208.11992,537.324407 1208.11992,537.324407 C1208.11992,537.324407 1208.46652,510.638681 1205.30395,504.279831 C1200.5095,494.639822 1184.24887,489.327828 1184.24887,489.327828 C1184.24887,489.327828 1173.89636,488.210028 1169.7507,487.061036 C1166.48799,486.156757 1162.02375,483.168016 1162.02375,483.168016 L1163.97617,432.966889 L1127.75557,435.321926 Z" id="Clavija-5" fill="#578FC5" sketch:type="MSShapeGroup"></path>
            <path d="M962.823413,438.314374 C962.823413,438.314374 964.184727,459.800962 964.089571,469.968307 C964.048683,474.337214 962.41528,481.923132 962.41528,481.923132 C962.41528,481.923132 948.325232,486.770678 941.461836,488.654958 C935.263405,490.356678 923.2298,492.681135 923.2298,492.681135 C923.2298,492.681135 908.079048,497.579746 905.218378,501.262563 C900.406467,507.457401 900.212053,522.314101 900.212053,522.314101 C900.212053,522.314101 903.329997,539.348161 907.822392,545.184507 C914.041251,553.263811 932.345817,564.061048 932.345817,564.061048 C932.345817,564.061048 945.924319,570.192556 957.192282,570.215345 C962.533279,570.226147 976.929635,571.36339 985.693819,570.215345 C998.927386,568.481842 1006.36677,564.210749 1006.36677,564.210749 C1006.36677,564.210749 1030.91267,556.468366 1038.66284,551.443594 C1047.2477,545.87766 1055.37187,532.438632 1055.37187,532.438632 C1055.37187,532.438632 1055.69125,517.903113 1053.39029,513.792951 C1047.8842,503.957524 1032.23043,491.206972 1032.23043,491.206972 C1032.23043,491.206972 1022.40053,485.795428 1017.55891,484.000829 C1012.22426,482.023482 1001.42191,479.286026 1001.42191,479.286026 C1001.42191,479.286026 999.3678,472.716845 999.43088,468.777153 C999.584999,459.15155 1002.0735,438.59014 1002.0735,438.59014 L962.823413,438.314374 Z" id="Clavija-6" fill="#578FC5" sketch:type="MSShapeGroup"></path>
            <path d="M837.896406,173.91962 L923.943998,121.253181 C923.943998,121.253181 1195.64723,123.889073 1239.85511,123.889077 C1284.063,123.889081 1353.74437,131.369461 1404.84574,124.87239 C1446.60307,206.291717 1431.47751,367.48294 1408.8871,441.427035 C1222.50557,441.427039 949.65943,442.436092 897.945413,449.303834 C887.221639,435.295478 838.38034,401.574552 838.38034,401.574552 L837.896406,173.91962 Z" id="Clavijero" fill="#5A914C" sketch:type="MSShapeGroup"></path>
        </g>
        <g id="Mano" sketch:type="MSLayerGroup" transform="translate(56.000000, 663.000000)" fill="#EDD6B3">
            <path d="M136.750137,93.1541517 C155.533943,70.795234 179.404703,57.3921239 179.404703,57.3921239 C179.404703,57.3921239 230.439358,33.4545554 259.683231,24.7748716 C281.9491,18.1662834 333.933927,11.5273085 333.933927,11.5273085 C333.933927,11.5273085 340.716227,2.79000812 348.889194,0.685439829 C354.750813,-0.823948072 376.037687,0.685439829 376.037687,0.685439829 C376.037687,0.685439829 415.94482,15.1161578 425.658023,27.0174484 C438.131702,42.3010654 442.598336,82.2401624 442.598336,82.2401624 C442.598336,82.2401624 426.695369,140.421445 417.170322,154.088209 C405.186415,171.283005 386.05142,206.866114 369.770572,222.668577 C348.608673,243.208671 331.341306,241.874392 331.341306,241.874392 C331.341306,241.874392 301.582581,243.070303 294.908084,240.036482 C276.818123,231.813882 257.047928,208.105131 257.047928,208.105131 C257.047928,208.105131 244.808277,188.929077 246.45621,176.06352 C248.629511,159.096387 268.511624,118.60706 268.511624,118.60706 L301.002127,63.4850334 C301.002127,63.4850334 289.281973,75.4248202 283.671069,82.2401638 C279.40795,87.4184079 271.380056,99.4657955 271.380056,99.4657955 C271.380056,99.4657955 261.663862,113.39895 257.047931,123.05892 C252.169223,133.268817 243.329085,156.847279 241.45577,161.877244 C192.156568,161.587296 143.495926,161.299376 99.6121197,161.038871 C108.538745,136.467626 121.117092,111.762623 136.750137,93.1541517 Z" id="Pulgar" sketch:type="MSShapeGroup"></path>
            <path d="M130.44851,557.5562 C124.189488,566.934651 105.572554,576.582231 105.572554,576.582231 C105.572554,576.582231 84.2807533,584.396403 74.6717326,582.249313 C65.0765289,580.105311 47.9598812,563.708948 47.9598812,563.708948 C47.9598812,563.708948 24.4868799,519.017498 17.9659469,495.507415 C12.9864772,477.554807 4.39865237,456.103308 1.31788894,434.098159 C-1.18591665,416.214078 1.31788894,395.549408 1.31788894,395.549408 C1.31788894,395.549408 1.33745855,364.804489 5.32970404,354.55667 C10.2671853,341.882498 28.1070677,326.783432 28.1070677,326.783432 C28.1070677,326.783432 51.5071721,317.125658 60.3065154,318.56998 C70.7789115,320.288916 77.584944,322.231366 85.9222859,336.273203 C94.259629,350.31504 95.1324487,395.913348 100.918107,416.090438 C107.153488,437.835912 121.985408,462.040894 121.985408,462.040894 C121.985408,462.040894 119.788072,422.378267 120.069825,407.140952 C120.421166,388.140271 123.884691,359.326906 123.884691,359.326906 C123.884691,359.326906 125.957015,332.797665 132.29992,320.996837 C136.864607,312.504341 155.844872,293.790873 155.844872,293.790873 C155.844872,293.790873 170.625617,280.599604 179.296853,278.973747 C185.234007,277.860531 199.670042,285.573653 199.670042,285.573653 C199.670042,285.573653 217.04715,298.397103 221.092553,306.861863 C226.386395,317.938903 227.687778,344.199055 227.687778,344.199055 C227.687778,344.199055 223.017896,394.953151 225.99775,419.166552 C228.151272,436.66542 243.087903,469.335865 243.087903,469.335865 C243.087903,469.335865 259.210919,508.35408 260.597268,524.014758 C261.814131,537.760859 250.897539,557.556203 250.897539,557.556203 C250.897539,557.556203 236.130222,574.34987 227.687783,576.582232 C214.046084,580.189388 184.136269,576.582232 184.136269,576.582232 C184.136269,576.582232 165.882205,564.306924 160.845879,557.5562 C152.059558,545.778959 142.668328,520.998338 142.668328,520.998338 C142.668328,520.998338 136.554745,548.406686 130.44851,557.5562 Z" id="Dedos-1" sketch:type="MSShapeGroup"></path>
            <path d="M416.628271,625.028913 C416.628271,625.028913 400.208017,634.278718 392.951758,634.278718 C385.853286,634.278719 373.564079,625.028913 373.564079,625.028913 C373.564079,625.028913 355.0161,612.623247 346.039206,604.325538 C339.088274,597.900506 325.7806,580.860694 325.7806,580.860694 L273.018995,518.666237 L261.529681,456.796409 L242.124839,375.02407 C242.124839,375.02407 238.866602,360.281008 242.124839,353.202384 C244.704692,347.597572 259.639107,336.973761 259.639107,336.973761 C259.639107,336.973761 277.541648,328.882644 288.771396,329.03535 C297.593366,329.155314 319.794261,337.791771 319.794261,337.791771 C319.794261,337.791771 335.745772,346.036334 343.868339,358.01319 C350.551457,367.867556 364.211314,403.285437 364.211314,403.285437 C364.211314,403.285437 372.726142,431.704009 382.758109,451.234809 C386.351528,458.230681 405.087474,482.865455 405.087474,482.865455 C405.087474,482.865455 398.765857,439.789858 395.854835,423.056388 C392.191751,401.999825 385.365152,369.495356 385.365152,369.495356 C385.365152,369.495356 378.884985,346.271631 377.215095,331.994201 C376.168298,323.044168 377.21509,299.812966 377.21509,299.812966 C377.21509,299.812966 401.35671,288.505203 416.628272,286.334402 C422.537721,285.494394 440.758124,290.780541 440.758124,290.780541 C440.758124,290.780541 457.355907,296.921745 461.944846,299.812966 C471.256343,305.679594 482.459434,317.054088 482.459434,317.054088 C482.459434,317.054088 495.844497,360.371115 499.363059,377.046212 C504.491278,401.349764 508.399775,439.990035 508.399775,439.990035 C508.399775,439.990035 526.309755,463.934775 535.086631,480.528688 C540.315068,490.413778 550.415713,519.427043 550.415713,519.427043 C550.415713,519.427043 557.867654,545.274262 555.601218,555.236421 C554.658768,559.378978 538.859887,577.143129 518.633475,583.610749 C498.494767,590.050324 473.926112,585.202437 473.926112,585.202437 C473.926112,585.202437 461.93423,583.307236 458.182288,580.860688 C452.274949,577.00866 444.948272,566.306705 444.948272,566.306705 C444.948272,566.306705 439.974823,588.860448 435.75138,599.569093 C434.218248,603.456387 416.628271,625.028913 416.628271,625.028913 Z" id="Path-16" sketch:type="MSShapeGroup"></path>
        </g>
        <g id="Pájaro" sketch:type="MSLayerGroup" transform="translate(176.000000, 1.000000)">
            <path d="M392.506218,603 C392.506218,603 391.869431,789.130917 400.43318,823.977814 C402.838992,824.551743 404.605144,823.977814 406.505418,825.171913 C402.823495,842.456925 402.843268,892.367127 426.680161,916.579682 C435.27792,885.070587 437.263708,813.223251 426.680161,813.223251 C425.915985,813.223251 419.462721,814.107666 419.462721,811.351837 C419.462721,797.825196 419.462721,677.478203 413.193934,613.846704 C406.925146,550.215203 392.506218,603 392.506218,603 Z" id="pata-+-garra" fill="#E3C45A" sketch:type="MSShapeGroup"></path>
            <path d="M455.399152,907.048701 C448.057966,884.572787 434.659733,840.760224 443.486108,819.626593 C452.312484,798.492964 468.861442,824.356135 468.861442,835.617745 C468.861442,842.69505 471.266127,882.372103 455.399152,907.048701 Z" id="garra-2" fill="#E3C45A" sketch:type="MSShapeGroup"></path>
            <path d="M382.96493,907.130498 C375.623744,884.654584 373.580748,886.649287 372.325187,868.276118 C371.722657,859.459033 371.268681,803.570499 377.523839,796.310021 C380.531856,792.81856 387.988159,794.7184 392.999561,797.688775 C398.010963,800.659149 391.80806,814.155935 397.875946,850.465803 C398.832485,856.189675 398.831905,882.453901 382.96493,907.130498 Z" id="garra-1" fill="#E3C45A" sketch:type="MSShapeGroup"></path>
            <path d="M522.364202,259.60875 C545.034985,211.530954 534.205183,171.14252 561.000042,133.970556 C587.7949,96.7985907 618.252392,95.71322 643.200024,104.013808 C653.408889,107.410508 674.70243,115.215875 684.465862,116.754907 C698.561547,118.976842 701.830039,116.012417 723.869854,133.970557 C744.949109,151.146025 743.035229,213.085603 723.869846,273.52217 C709.11659,320.045437 683.266351,363.15511 655.187206,399.780383 C676.014904,418.77901 704.270458,443.757098 715.960217,462.751269 C677.723522,491.433612 617.288075,497.197431 595.080383,497.197434 C575.286527,530.637068 508.196744,633.271895 306.322538,623.903914 C104.448332,614.535916 9.23025686,399.780379 1.25403827,337.742659 C-6.72218118,275.704939 43.8801241,167.717343 75.4667906,142.236124 C75.4667923,133.970564 43.565429,43.381374 151.319546,6.50403211 C259.073667,-30.3733033 277.690684,90.6896803 277.690684,90.6896803 L282.567974,110.234831 C282.567974,110.234831 482.635143,216.356447 522.364202,259.60875 Z M208.599613,131.875724 L226.919748,122.28166 C226.919748,122.28166 239.99701,113.873603 239.997007,131.704869 C239.997006,149.536135 238.727443,163.875475 238.727443,163.875475 C238.727443,163.875475 227.719742,149.43777 220.80015,142.088245 C217.677133,138.771186 208.599613,131.875724 208.599613,131.875724 Z" id="cuerpo" fill="#FFFFFF" sketch:type="MSShapeGroup"></path>
        </g>
    </g>
</svg>