<?xml version="1.0" encoding="UTF-8" standalone="no"?>
<svg width="2118px" height="231px" viewBox="0 0 2118 231" version="1.1" xmlns="http://www.w3.org/2000/svg" xmlns:xlink="http://www.w3.org/1999/xlink" xmlns:sketch="http://www.bohemiancoding.com/sketch/ns">
    <title>Slice 1</title>
    <description>Created with Sketch (http://www.bohemiancoding.com/sketch)</description>
    <defs></defs>
    <g id="Page-1" stroke="none" stroke-width="1" fill="none" fill-rule="evenodd" sketch:type="MSPage">
        <path d="M2027.94334,124.233256 C2027.27508,102.955617 2031.56997,39.8424013 2031.56997,39.8424013 C2031.56997,39.8424013 2055.47311,33.591771 2067.43323,32.5685797 C2083.81449,31.167162 2116.59412,32.5685797 2116.59412,32.5685797 C2116.59412,32.5685797 2117.5496,51.3366774 2114.60766,59.5675914 C2113.65434,62.2347818 2104.90833,65.2628927 2104.90833,65.2628927 C2104.90833,65.2628927 2101.36065,60.7616133 2098.08638,59.5675914 C2093.97308,58.0676053 2082.74564,57.1808686 2082.74564,57.1808686 C2082.74564,57.1808686 2071.22626,58.3765507 2065.44677,61.6070398 C2063.03278,62.9563643 2058.1652,70.9203096 2058.1652,70.9203096 C2058.1652,70.9203096 2054.80679,76.9573023 2054.56691,80.5713814 C2054.26951,85.0519545 2056.55336,95.2042663 2056.55336,95.2042663 C2056.55336,95.2042663 2069.72051,97.2190107 2076.29831,97.1395342 C2080.86902,97.0843092 2089.99888,94.8001651 2089.99888,94.8001651 C2089.99888,94.8001651 2091.82011,102.304088 2091.61071,106.43386 C2091.41715,110.251411 2088.79001,118.642136 2088.79001,118.642136 C2088.79001,118.642136 2073.94565,121.302725 2067.43323,124.233256 C2063.46875,126.017239 2057.35928,132.785678 2057.35928,132.785678 C2057.35928,132.785678 2055.48606,143.762914 2056.55337,150.095728 C2057.09789,153.326643 2062.19478,161.476864 2062.19478,161.476864 C2062.19478,161.476864 2085.03829,166.192164 2096.44621,165.855683 C2103.30572,165.65336 2116.99707,159.860459 2116.99707,159.860459 C2116.99707,159.860459 2117.87197,175.181536 2116.99707,181.615624 C2116.26013,187.035172 2112.16158,195.421365 2112.16158,195.421365 C2112.16158,195.421365 2084.49706,199.708587 2069.85098,199.396084 C2065.14721,199.29572 2058.03714,198.184634 2051.58039,196.979083 C2040.32569,198.190922 2026.6166,199.447655 2017.4431,199.542193 C2007.66356,199.642977 1989.98362,197.227244 1982.56819,196.14222 C1970.57073,197.530971 1952.28969,199.42528 1940.94512,199.542193 C1928.35021,199.671991 1902.65135,195.627784 1902.65135,195.627784 C1902.65135,195.627784 1899.56657,181.159545 1898.92664,174.585772 C1898.51659,170.37345 1896.45041,147.682983 1896.12541,131.833172 C1895.5818,105.321848 1896.95173,81.049099 1897.44381,70.7153915 C1898.39338,50.7743506 1902.65135,32.7738862 1902.65135,32.7738862 C1902.65135,32.7738862 1915.18499,31.1211443 1921.57325,31.0007714 C1923.5597,30.9633408 1927.7755,32.3004738 1927.7755,32.3004738 C1927.7755,32.3004738 1925.9453,50.3685725 1925.40843,60.7837501 C1925.15628,65.6755763 1925.40843,78.2214849 1925.40843,78.2214849 C1925.40843,78.2214849 1926.9888,117.515352 1927.7755,131.833172 C1928.18683,139.319511 1927.38082,146.696841 1927.7755,153.473081 C1928.14012,159.73326 1929.72228,165.696631 1929.72228,165.696631 C1929.72228,165.696631 1953.11629,161.828711 1964.61035,161.367462 C1965.51772,161.33105 1969.39646,161.177593 1974.27207,161.233415 C1973.57788,152.397519 1972.81088,140.976997 1972.62339,131.833172 C1972.07978,105.321848 1973.44971,81.049099 1973.94179,70.7153915 C1974.89136,50.7743506 1979.14933,32.7738862 1979.14933,32.7738862 C1979.14933,32.7738862 1991.68297,31.1211443 1998.07123,31.0007714 C2000.05768,30.9633408 2004.27348,32.3004738 2004.27348,32.3004738 C2004.27348,32.3004738 2002.44328,50.3685725 2001.90641,60.7837501 C2001.65426,65.6755763 2001.90641,78.2214849 2001.90641,78.2214849 C2001.90641,78.2214849 2003.48678,117.515352 2004.27348,131.833172 C2004.68481,139.319511 2003.8788,146.696841 2004.27348,153.473081 C2004.6381,159.73326 2006.22026,165.696631 2006.22026,165.696631 C2006.22026,165.696631 2019.83307,163.445917 2031.39243,162.173524 C2029.78823,150.144106 2028.32577,136.409634 2027.94334,124.233256 Z" id="E" fill="#DEDEE0" sketch:type="MSShapeGroup"></path>
        <path d="M1863.39626,139.398644 C1863.1662,152.236356 1863.42216,185.819209 1869.02852,200.920213 C1871.80863,208.408571 1880.69558,205.277498 1882.02603,204.819474 C1886.82203,203.168395 1892.44435,187.489451 1892.44435,187.489451 C1892.44435,187.489451 1893.67465,144.886024 1893.7441,136.365891 C1893.98493,106.824132 1896.02954,68.0591453 1895.94928,45.8165394 C1895.9083,34.4598561 1893.7441,28.0532692 1893.7441,28.0532692 C1893.7441,28.0532692 1888.57292,26.2824887 1886.41777,26.3202673 C1880.33439,26.4269057 1869.02852,28.4865197 1869.02852,28.4865197 C1869.02852,28.4865197 1864.05627,102.568652 1863.39626,139.398644 Z" id="I" fill="#DEDEE0" sketch:type="MSShapeGroup"></path>
        <path d="M1736.23197,98.8617091 C1734.79052,83.3231026 1734.59205,37.6716469 1734.59205,37.6716469 L1770.25248,37.6716469 C1770.25248,37.6716469 1765.73858,66.8721076 1764.95597,83.915607 C1764.52288,93.3472779 1766.60539,117.097158 1766.60539,117.097158 C1766.60539,117.097158 1771.38616,132.464231 1777.51817,139.432418 C1780.30127,142.595036 1793.35072,147.489573 1793.35072,147.489573 C1793.35072,147.489573 1804.71719,150.676576 1807.92958,149.157989 C1812.14644,147.164564 1815.63849,136.953536 1815.63849,136.953536 C1815.63849,136.953536 1821.70797,111.96796 1822.90418,98.8617091 C1824.81475,77.9284552 1824.95883,34.8350215 1824.95883,34.8350215 L1856.97217,34.8350215 C1856.97217,34.8350215 1858.3964,68.7400301 1855.32275,98.8617091 C1854.34407,108.452786 1844.81521,153.973288 1844.81521,153.973288 C1844.81521,153.973288 1839.68532,170.936745 1835.48537,180.313385 C1833.87699,183.904176 1827.39022,192.875579 1827.39022,192.875579 C1827.39022,192.875579 1815.49768,195.644631 1807.92958,195.712204 C1800.36902,195.779709 1782.00422,193.280811 1782.00422,193.280811 C1782.00422,193.280811 1765.12448,182.24761 1757.68079,173.019195 C1752.7037,166.848786 1744.74185,147.084341 1744.74185,147.084341 C1744.74185,147.084341 1738.17378,119.794 1736.23197,98.8617091 Z" id="U" fill="#DEDEE0" sketch:type="MSShapeGroup"></path>
        <path d="M1703.4215,105.731498 C1707.85788,107.15909 1718.62453,105.731495 1718.62453,105.731495 L1721,62.4489701 C1721,62.4489701 1710.85695,42.3059636 1706.27206,37.2181717 C1697.71267,27.7199108 1681.56715,18.6908133 1681.56715,18.6908133 C1681.56715,18.6908133 1654.83639,14.2644417 1640.70901,16.7659894 C1631.55676,18.3865883 1611.72824,31.0572489 1611.72824,31.0572489 C1611.72824,31.0572489 1594.78442,47.6061755 1589.87389,62.448969 C1586.54944,72.4975911 1587.02332,105.731495 1587.02332,105.731495 C1587.02332,105.731495 1587.39501,137.030663 1591.77427,158.028738 C1593.41287,165.88568 1605.07692,192.296544 1605.07692,192.296544 C1605.07692,192.296544 1616.69942,210.234362 1626.93127,214.651254 C1633.96119,217.685932 1656.86223,214.651255 1656.86223,214.651255 C1656.86223,214.651255 1679.76615,206.348852 1689.64376,197.030576 C1696.2361,190.811535 1706.27207,168.039305 1706.27207,168.039305 C1706.27207,168.039305 1714.3519,151.762351 1716.24906,142.808507 C1717.67757,136.06649 1716.24905,120.951723 1716.24905,120.951723 C1716.24905,120.951723 1714.56153,117.551609 1706.27206,116.671033 C1697.49038,115.73817 1681.80804,117.305053 1671.59016,116.671033 C1664.36034,116.222424 1659.82709,112.567592 1654.48676,114.270578 C1644.07354,117.591262 1651.4737,140.120966 1648.31052,142.808507 C1645.99209,144.778323 1681.56715,150.418618 1681.56715,150.418618 C1681.56715,150.418618 1673.391,169.375777 1668.2645,174.698163 C1664.8393,178.254244 1654.48676,180.405741 1654.48676,180.405741 C1654.48676,180.405741 1645.56774,178.059597 1640.70901,168.039305 C1637.64949,161.72956 1630.73203,131.41563 1630.73203,131.41563 C1630.73203,131.41563 1630.0511,104.18389 1632.6324,90.9646037 C1634.16859,83.0975313 1643.08448,68.1565558 1643.08448,68.1565558 C1643.08448,68.1565558 1649.36893,63.4736934 1654.48676,62.448969 C1658.87082,61.5711645 1671.59016,62.448969 1671.59016,62.448969 C1671.59016,62.448969 1681.48287,74.5613863 1684.41771,79.5494322 C1688.29256,86.1351019 1692.01923,97.1701164 1692.01923,97.1701164 C1692.01923,97.1701164 1698.98945,104.305298 1703.4215,105.731498 Z" id="G" fill="#DEDEE0" sketch:type="MSShapeGroup"></path>
        <path d="M1562.81898,176.163035 C1567.12099,181.500713 1578.74609,191.330594 1578.74609,191.330594 C1578.74609,191.330594 1575.56164,197.645534 1571.73377,199.478602 C1566.79636,201.842992 1552.45024,203.92297 1552.45024,203.92297 C1552.45024,203.92297 1547.74497,202.813839 1545.80828,201.330423 C1541.9426,198.369471 1535.04313,190.589866 1535.04313,190.589866 C1535.04313,190.589866 1524.49592,195.400933 1518.9323,195.774958 C1509.80481,196.388571 1490.96982,193.552778 1490.96982,193.552778 C1490.96982,193.552778 1479.71858,192.14691 1476.17985,190.589869 C1472.76495,189.087311 1458.1501,184.910339 1452.82956,176.163035 C1444.42888,162.351809 1445.58242,141.780645 1446.92109,137.62781 C1449.52886,129.537993 1463.29828,116.009132 1467.66148,112.443056 C1476.13757,105.515485 1495.41418,92.8137659 1495.41418,92.8137659 C1495.41418,92.8137659 1490.54119,72.5824426 1490.96981,64.6834622 C1491.40537,56.65679 1498.00673,45.0368081 1498.00673,45.0368081 C1498.00673,45.0368081 1504.48136,34.141788 1508.38416,31.7210642 C1514.23428,28.0925088 1527.26549,26.8889714 1527.26549,26.8889714 C1527.26549,26.8889714 1540.03796,26.1833411 1544.29211,29.1285163 C1548.06252,31.7388012 1551.33915,43.555352 1551.33915,43.555352 C1551.33915,43.555352 1553.69278,62.4823692 1551.33915,68.3871024 C1546.65587,80.1363879 1530.2284,96.517406 1530.2284,96.517406 C1530.2284,96.517406 1529.6196,107.339165 1531.72577,115.368944 C1533.57015,122.400634 1542.08005,141.701816 1542.08005,141.701816 C1542.08005,141.701816 1550.57943,141.615682 1553.94761,139.496989 C1558.23362,136.80095 1565.04262,127.257619 1565.04262,127.257619 C1565.04262,127.257619 1574.9228,126.582919 1578.74609,127.257616 C1581.21899,127.694011 1583.93118,130.590895 1583.93118,130.590895 C1583.93118,130.590895 1581.69632,143.06622 1578.74609,147.274638 C1573.3014,155.041324 1558.74643,166.516205 1558.74643,166.516205 C1558.74643,166.516205 1560.45444,173.22925 1562.81898,176.163035 Z M1504.30147,121.942317 C1504.30147,121.942317 1510.46691,142.745388 1514.6543,152.32808 C1516.88655,157.436494 1523.5604,166.015634 1523.5604,166.015634 C1523.5604,166.015634 1515.01925,168.742365 1509.46921,168.99446 C1506.86545,169.112729 1494.82408,169.286709 1490.95101,167.126727 C1488.40444,165.706523 1479.84009,156.38617 1479.84009,156.38617 C1479.84009,156.38617 1481.09806,145.441224 1482.43264,140.830882 C1483.81407,136.058669 1487.9881,128.238505 1487.9881,128.238505 L1504.30147,121.942317 Z" id="Y" fill="#EEA73D" sketch:type="MSShapeGroup"></path>
        <path d="M1260.04303,203.443334 C1265.92352,216.064305 1284.8657,206.197246 1284.8657,206.197246 C1284.8657,206.197246 1288.61386,183.690829 1290.9671,176.00357 C1294.12168,165.698617 1301.38916,152.220609 1301.38916,152.220609 C1301.38916,152.220609 1318.64888,147.86782 1325.63138,147.263565 C1337.74265,146.215474 1358.67049,147.26357 1358.67049,147.26357 C1358.67049,147.26357 1362.58914,163.371222 1363.5547,170.947204 C1364.97586,182.097811 1365.83066,203.443336 1365.83066,203.443336 C1365.83066,203.443336 1374.67873,208.188067 1380.14615,209.496643 C1383.10926,210.205836 1391.12225,209.496643 1391.12225,209.496643 C1391.12225,209.496643 1389.71122,168.103351 1387.84933,147.263565 C1387.47842,143.112019 1380.24646,104.180733 1371.55415,79.1352308 C1364.49886,58.8065167 1354.5122,34.0831796 1344.59999,24.9899643 C1337.84197,18.7903248 1321.79613,24.8227218 1319.12025,24.9899643 C1313.97092,25.3117978 1310.20168,24.9899639 1310.20168,24.9899639 C1310.20168,24.9899639 1301.3643,46.0647546 1296.89956,59.0023573 C1292.45408,71.884129 1285.03748,95.8602887 1279.12301,113.811256 C1276.05639,123.118729 1254.16254,190.822363 1260.04303,203.443334 Z M1315.53717,86.2597421 C1313.94372,95.342386 1312.75951,118.479886 1312.75951,118.479886 C1312.75951,118.479886 1325.28827,120.866173 1332.63554,120.924026 C1337.83062,120.964932 1350.38656,118.776162 1350.38656,118.776162 C1350.38656,118.776162 1354.12696,111.942868 1351.68283,99.8884347 C1350.41169,93.6191585 1343.9226,81.2440563 1341.90573,77.6677402 C1338.22102,71.1340365 1321.64779,67.8167031 1321.64779,67.8167031 C1321.64779,67.8167031 1316.90648,78.4546582 1315.53717,86.2597421 Z" id="A-#4" fill="#DEDEE0" sketch:type="MSShapeGroup"></path>
        <path d="M977.238459,45.932664 C985.361637,44.7580339 1010.92872,44.6490158 1010.92872,44.6490158 C1010.92872,44.6490158 1023.90216,63.2652467 1027.01647,70.2577576 C1031.45027,80.2128807 1033.95033,95.5088612 1037.85524,108.159516 C1041.19385,118.97552 1044.9454,121.026082 1044.9454,121.026082 C1044.9454,121.026082 1046.84078,128.02598 1053.25902,108.159516 C1056.0611,99.4862002 1055.42991,84.0687373 1058.39362,72.2173663 C1062.21837,56.9228554 1069.33471,45.932664 1069.33471,45.932664 C1069.33471,45.932664 1082.36947,42.8093353 1091.43493,45.932664 C1095.12696,47.2046825 1099.64239,54.1260895 1100.03978,55.5213904 C1101.41664,60.3556985 1103.18188,64.8968199 1104.99197,69.6287213 C1115.1299,33.3810959 1125.50366,0 1125.50366,0 L1161.33617,0 L1221.36833,158.769287 C1221.36833,158.769287 1227.36021,170.36637 1231.87766,181.623445 C1230.6572,167.598155 1230.62267,152.685979 1230.75913,145.071705 C1231.41913,108.241713 1236.39138,34.1595806 1236.39138,34.1595806 C1236.39138,34.1595806 1247.69725,32.0999666 1253.78064,31.9933281 C1255.93578,31.9555496 1261.10697,33.7263301 1261.10697,33.7263301 C1261.10697,33.7263301 1263.27117,40.1329169 1263.31214,51.4896003 C1263.39241,73.7322062 1261.3478,112.497193 1261.10697,142.038952 C1261.03751,150.559085 1259.80722,193.162511 1259.80722,193.162511 C1259.80722,193.162511 1254.18489,208.841455 1249.3889,210.492535 C1248.35039,210.850054 1242.70779,212.83623 1238.95928,210.129274 C1238.95106,211.004941 1238.87396,211.629041 1238.74274,211.969482 C1235.73494,219.772889 1211.20165,227.348288 1204.52399,219.191849 C1198.83343,212.241106 1181.31443,159.527771 1174.40105,153.731125 C1172.19273,151.879523 1161.14067,146.380691 1150.75503,147.097717 C1139.69698,147.861167 1129.23277,155.014429 1125.50366,158.769287 C1122.01039,162.286672 1119.21185,179.813779 1119.21185,179.813779 C1119.21185,179.813779 1118.28086,197.224659 1116.42521,202.498947 C1114.97497,206.620959 1107.74902,214.590469 1100.60398,219.191849 C1094.4102,223.180625 1088.22133,224.18383 1086.59508,223.541763 C1085.74005,223.204185 1082.35177,217.582484 1082.07689,209.203033 C1081.90639,204.005642 1082.02737,197.735968 1082.36125,190.979026 C1082.08906,186.082735 1081.92659,180.365608 1082.14111,174.909218 C1082.83548,157.247656 1085.91467,139.021851 1085.77009,126.009133 C1085.59846,110.563029 1082.14111,88.2930536 1082.14111,88.2930536 C1082.14111,88.2930536 1077.23652,115.254882 1074.15522,128.000252 C1072.52981,134.723546 1068.02098,146.699045 1068.02098,146.699045 C1068.02098,146.699045 1063.70613,155.249274 1060.21738,158.862626 C1057.71577,161.453574 1050.0499,165.311944 1050.0499,165.311944 C1050.0499,165.311944 1034.80535,156.805211 1027.01647,149.238877 C1019.82945,142.257198 1005.12222,121.667906 1005.12222,121.667906 C1005.12222,121.667906 1006.55802,152.558528 1005.12222,167.490815 C1003.3489,185.933381 995.494858,221.792463 995.494858,221.792463 C995.494858,221.792463 994.054142,222.128419 991.92917,222.532438 C984.541768,228.747277 966.164029,233.080885 960.523987,226.191849 C954.833426,219.241106 937.314434,166.527771 930.401047,160.731125 C928.192729,158.879523 917.140667,153.380691 906.755028,154.097717 C895.696978,154.861167 885.232771,162.014429 881.503658,165.769287 C878.01039,169.286672 875.211849,186.813779 875.211849,186.813779 C875.211849,186.813779 874.280862,204.224659 872.425213,209.498947 C870.974968,213.620959 863.74902,221.590469 856.603983,226.191849 C850.410198,230.180625 844.221327,231.18383 842.595076,230.541763 C841.740045,230.204185 838.351766,224.582484 838.076888,216.203033 C837.391322,195.304 841.418562,157.067297 845.05021,139.528458 C854.498623,93.8978914 881.503657,7 881.503657,7 L917.336167,7 L972.675671,153.358432 C973.254775,108.497694 974.137701,46.3810406 977.238459,45.932664 Z M1140.37413,118.329403 C1147.96747,121.916243 1166.88756,118.329404 1166.88756,118.329404 C1166.88756,118.329404 1161.66371,92.9258015 1159.20244,82.5667269 C1155.99901,69.0840168 1149.89346,46.8040507 1149.89346,46.8040507 C1149.89346,46.8040507 1134.42532,67.7553926 1130.65456,78.4195864 C1129.25178,82.3868237 1125.62434,96.176431 1128.06985,105.383995 C1130.23059,113.519367 1138.27058,117.335757 1140.37413,118.329403 Z M896.374131,125.329403 C903.96747,128.916243 922.887565,125.329404 922.887565,125.329404 C922.887565,125.329404 917.66371,99.9258015 915.202439,89.5667269 C911.999007,76.0840168 905.893457,53.8040507 905.893457,53.8040507 C905.893457,53.8040507 890.425318,74.7553926 886.654559,85.4195864 C885.251781,89.3868237 881.62434,103.176431 884.069853,112.383995 C886.230594,120.519367 894.270584,124.335757 896.374131,125.329403 Z" id="I" fill="#DEDEE0" sketch:type="MSShapeGroup"></path>
        <path d="M829.355018,82.3290099 C831.096916,77.4632023 830.531183,66.3682069 830.531183,66.3682069 C830.531183,66.3682069 811.122644,65.5397413 801.42344,66.3682069 C794.341951,66.9730793 780.189103,70.6682175 780.189103,70.6682175 C780.189103,70.6682175 777.646136,107.978383 778.04181,120.556925 C778.600488,138.317346 783.052159,161.685107 783.052159,161.685107 C783.052159,161.685107 796.57527,164.85659 802.854968,164.99037 C811.526788,165.17511 827.906714,162.640665 827.906714,162.640665 C827.906714,162.640665 830.333435,157.683062 830.76977,154.479229 C831.287787,150.675637 830.769771,141.618391 830.769771,141.618391 C830.769771,141.618391 822.663237,145.042937 818.601781,145.162543 C811.847245,145.361458 798.321795,142.573949 798.321795,142.573949 C798.321795,142.573949 795.303972,137.755844 794.981563,135.845849 C794.34962,132.102126 795.458738,125.612796 795.458738,125.612796 C795.458738,125.612796 799.0761,121.611549 801.423439,120.556925 C805.27939,118.824505 814.068607,117.251665 814.068607,117.251665 C814.068607,117.251665 815.624115,112.291383 815.738722,110.03459 C815.862703,107.593224 814.784371,103.157186 814.784371,103.157186 C814.784371,103.157186 809.378654,104.507486 806.672377,104.540133 C802.777718,104.587117 794.981562,103.396075 794.981562,103.396075 C794.981562,103.396075 793.629312,97.3944095 793.805397,94.7456627 C793.94743,92.6091547 795.935914,89.0403111 795.935914,89.0403111 C795.935914,89.0403111 798.817966,84.3323254 800.247274,83.5346553 C803.669257,81.6249114 810.489786,80.9180689 810.489786,80.9180689 C810.489786,80.9180689 817.13746,81.4422744 819.572906,82.3290099 C821.511575,83.0348709 823.612129,85.6958584 823.612129,85.6958584 C823.612129,85.6958584 828.790564,83.9057529 829.355018,82.3290099 Z" id="E" fill="#EEA73D" sketch:type="MSShapeGroup"></path>
        <path d="M705.11285,88.845598 C705.323634,103.928799 706.052712,125.885659 706.033272,136.654331 C706.009101,150.043551 705.11285,170.514184 705.11285,170.514184 C705.11285,170.514184 709.181138,171.743058 711.096737,171.849476 C717.193158,172.188155 729.148909,171.849476 729.148909,171.849476 C729.148909,171.849476 743.84943,167.965251 751.032232,161.959511 C756.571258,157.328178 767.314393,139.938258 767.314393,139.938258 C767.314393,139.938258 775.173648,126.885611 775.935525,118.610407 C776.618578,111.191361 771.649182,92.8555106 771.649182,92.8555106 C771.649182,92.8555106 762.542152,79.7787795 756.294408,74.19608 C750.992897,69.4588908 737.001418,61.8958445 737.001418,61.8958445 C737.001418,61.8958445 725.333795,60.4264858 719.976174,60.1297656 C714.704272,59.8377929 705.11285,60.1297656 705.11285,60.1297656 C705.11285,60.1297656 704.858938,70.6762158 705.11285,88.845598 Z M725.000084,117.993668 C724.985589,127.078463 726.856196,144.987339 726.856196,144.987339 C726.856196,144.987339 732.577043,145.181836 735.334853,144.046215 C737.272078,143.248498 740.941302,139.187325 740.941302,139.187325 C740.941302,139.187325 749.649841,131.691458 751.752485,126.499794 C752.826363,123.848271 756.452331,116.253419 754.362478,109.614764 C752.411607,103.417604 744.855349,98.1202113 742.58398,96.6452037 C738.443227,93.9562334 726.942331,91 726.942331,91 C726.942331,91 725.014301,109.082683 725.000084,117.993668 Z" id="D-#2" fill="#EEA73D" sketch:type="MSShapeGroup"></path>
        <path d="M510.687347,136.855397 C507.055699,154.394236 503.028458,192.630939 503.714025,213.529973 C503.988902,221.909423 507.377181,227.531124 508.232212,227.868702 C509.858463,228.510769 516.047334,227.507564 522.241119,223.518788 C529.386157,218.917408 536.612104,210.947898 538.062349,206.825886 C539.917998,201.551599 540.848985,184.140718 540.848985,184.140718 C540.848985,184.140718 543.647527,166.613611 547.140795,163.096226 C550.869908,159.341368 561.334114,152.188106 572.392164,151.424656 C582.777803,150.70763 593.829865,156.206463 596.038183,158.058064 C602.951571,163.85471 620.470562,216.568045 626.161123,223.518788 C632.838786,231.675227 657.372078,224.099828 660.379873,216.296422 C661.078242,214.484579 660.243661,204.638399 655.651342,191.595311 C651.204262,178.964724 643.005468,163.096226 643.005468,163.096226 L582.973304,4.32693913 L547.140793,4.32693913 C547.140793,4.32693913 520.13576,91.2248305 510.687347,136.855397 Z M549.706989,109.710934 C551.86773,117.846306 559.90772,121.662696 562.011268,122.656342 C569.604606,126.243182 588.524701,122.656343 588.524701,122.656343 C588.524701,122.656343 583.300846,97.2527407 580.839576,86.893666 C577.636144,73.4109559 571.530593,51.1309898 571.530593,51.1309898 C571.530593,51.1309898 556.062455,72.0823317 552.291695,82.7465255 C550.888917,86.7137628 547.261476,100.50337 549.706989,109.710934 Z" id="A" fill="#DEDEE0" sketch:type="MSShapeGroup"></path>
        <path d="M373.03564,64.9064728 C373.433865,93.4913985 374.811281,135.102937 374.774554,155.511182 C374.72889,180.885761 373.03564,219.680677 373.03564,219.680677 C373.03564,219.680677 380.721683,222.009577 384.340742,222.211256 C395.85845,222.853102 418.44594,222.211255 418.44594,222.211255 C418.44594,222.211255 446.219007,214.850066 459.789168,203.46829 C470.253814,194.691221 490.550361,161.734718 490.550361,161.734718 C490.550361,161.734718 505.398516,136.997995 506.837897,121.315244 C508.128359,107.255041 498.739892,72.505858 498.739892,72.505858 C498.739892,72.505858 481.534368,47.7234937 469.730773,37.1434418 C459.714854,28.1657589 433.28135,13.8326531 433.28135,13.8326531 C433.28135,13.8326531 411.238208,11.0479983 401.116284,10.4856692 C391.156304,9.93233719 373.03564,10.4856692 373.03564,10.4856692 C373.03564,10.4856692 372.555934,30.4727721 373.03564,64.9064728 Z M410.807179,118.81245 C410.779622,135.991523 414.336016,169.856669 414.336016,169.856669 C414.336016,169.856669 425.212479,170.224458 430.455624,168.077033 C434.138672,166.568574 441.114593,158.889017 441.114593,158.889017 C441.114593,158.889017 457.67125,144.714557 461.668795,134.897277 C463.710449,129.883326 470.604133,115.521691 466.630907,102.968192 C462.921916,91.2495489 448.555971,81.232339 444.23765,78.4431439 C436.365257,73.3583819 414.499777,67.7682334 414.499777,67.7682334 C414.499777,67.7682334 410.834209,101.962044 410.807179,118.81245 Z" id="D" fill="#DEDEE0" sketch:type="MSShapeGroup"></path>
        <path d="M304.646428,207.936581 C308.94119,210.112845 318.192809,210.762553 318.192809,210.762553 C318.192809,210.762553 330.398958,211.163208 335.504277,207.936581 C341.220067,204.324129 350.656134,190.245317 350.656134,190.245317 C350.656134,190.245317 361.925998,171.075062 365.326345,159.919171 C367.809274,151.773151 368.305963,132.339584 368.305963,132.339584 L369.857919,90.4713022 L365.326346,54.4811184 C365.326346,54.4811184 358.371989,37.6222719 353.492467,32.997147 C346.34131,26.2188209 329.23431,20.2707638 329.23431,20.2707638 C329.23431,20.2707638 306.175564,21.238572 298.291867,25.5342935 C289.868806,30.1239077 280.314038,46.9267705 280.314038,46.9267705 C280.314038,46.9267705 270.751393,74.6571346 269.448621,86.9651607 C267.129587,108.874395 269.448621,149.57855 269.448621,149.57855 C269.448621,149.57855 273.628225,172.528793 277.878209,181.969372 C280.721071,188.284281 290.727161,196.845014 290.727161,196.845014 C290.727161,196.845014 299.785974,205.473666 304.646428,207.936581 Z M300.967653,86.3264244 C302.836007,79.2443942 310.785662,66.9149572 310.785662,66.9149572 C310.785662,66.9149572 317.754378,54.1069485 322.605265,55.4789277 C325.433151,56.2787403 336.785195,67.1505563 341.060023,81.6895455 C344.707198,94.0938429 341.609811,109.938947 341.060021,116.055268 C340.517858,122.086742 336.019871,145.54465 332.030938,156.002164 C328.937707,164.111474 324.315241,170.960284 319.216889,171.040082 C315.239811,171.10233 302.789407,156.226937 300.967653,149.95834 C298.359111,140.982438 296.949259,119.362088 296.949259,119.362088 C296.949259,119.362088 298.223873,96.7267709 300.967653,86.3264244 Z" id="O" fill="#DEDEE0" sketch:type="MSShapeGroup"></path>
        <path d="M189.772742,9.73548315 C177.305434,7.85412262 152.112086,9.73548315 152.112086,9.73548315 L155.175345,218.715195 C155.175345,218.715195 170.977196,221.052243 179.25346,221.465876 C189.323092,221.969137 210.213033,221.465877 210.213033,221.465877 C210.213033,221.465877 228.560927,212.536048 234.684626,207.810038 C243.737768,200.823207 255.743556,186.327355 255.743556,186.327355 C255.743556,186.327355 262.052645,172.280085 263.256686,165.174158 C264.557021,157.499924 263.256686,141.986872 263.256686,141.986872 C263.256686,141.986872 256.498105,130.776408 253.220652,128.317842 C245.218717,122.31523 229.41852,116.603334 229.41852,116.603334 C229.41852,116.603334 242.101411,114.364881 247.736651,112.413797 C252.156139,110.883642 259.582705,106.159616 259.582705,106.159616 C259.582705,106.159616 266.261055,94.2261104 267.265055,87.7357731 C268.821839,77.6719787 267.265055,56.497221 267.265055,56.497221 C267.265055,56.497221 260.155758,44.9004409 255.743556,40.8089104 C247.540246,33.2018067 229.41852,21.4013118 229.41852,21.4013118 C229.41852,21.4013118 203.074246,11.7427296 189.772742,9.73548315 Z M215.115231,55.8564856 C206.967694,51.2246401 190.747867,48.6228621 190.747867,48.6228621 C190.747867,48.6228621 189.950109,60.2197905 190.747867,66.0176432 C191.962206,74.8430856 190.747866,89.1380548 190.747866,89.1380548 C190.747866,89.1380548 199.791154,92.3525202 205.207562,92.3525202 C210.209758,92.3525202 222.003676,89.1380548 222.003676,89.1380548 C222.003676,89.1380548 225.154965,82.9280244 225.703547,79.8786738 C226.388255,76.0726582 225.703546,68.5719562 225.703546,68.5719562 C225.703546,68.5719562 220.631684,58.9925688 215.115231,55.8564856 Z M211.057239,143.518591 C204.412509,142.399835 189.809416,143.518591 189.809416,143.518591 L189.809416,187.89114 C189.809416,187.89114 207.747924,187.219016 215.335281,183.626041 C220.76974,181.052566 227.78324,176.711709 227.78324,176.711709 C227.78324,176.711709 230.682862,168.422446 230.251258,164.330629 C229.723556,159.327742 224.905324,149.427596 224.905324,149.427596 C224.905324,149.427596 216.111145,144.369503 211.057239,143.518591 Z" id="B" fill="#DEDEE0" sketch:type="MSShapeGroup"></path>
        <path d="M18.5882303,55.0005584 C13.9448458,55.0876892 4.83461432,56.284012 4.83461432,56.284012 C4.83461432,56.284012 1.7396605,69.31349 1.04945133,83.7476373 C0.691775467,91.2276007 -0.303973489,108.797217 0.0911561043,127.987206 C0.327384743,139.459952 1.82921671,155.884248 2.12726588,158.9333 C2.59240339,163.691668 4.8346142,174.164376 4.8346142,174.164376 C4.8346142,174.164376 23.5141517,177.091739 32.6689141,176.997786 C45.774387,176.863288 71.6153203,173.479023 71.6153203,173.479023 C71.6153203,173.479023 73.9570127,159.476392 75.4272209,154.693675 C77.3980696,148.282327 81.9384921,139.896827 81.9384921,139.896827 C81.9384921,139.896827 92.7216435,137.188688 97.084021,136.812744 C104.650642,136.160662 117.725488,136.812747 117.725488,136.812747 C117.725488,136.812747 120.173693,146.834311 120.776939,151.547797 C121.664818,158.485277 122.198862,171.765645 122.198862,171.765645 C122.198862,171.765645 127.726768,174.717635 131.142586,175.531781 C132.993814,175.973014 138,175.531781 138,175.531781 C138,175.531781 137.118448,149.778461 135.955216,136.812744 C135.723486,134.229811 131.205254,110.008256 125.774664,94.4259042 C121.366811,81.7781569 115.127563,66.3962436 108.934822,60.7387934 C104.712691,56.8816152 94.6879196,60.6347415 93.0161413,60.7387934 C89.7990498,60.9390259 87.4441837,60.7387931 87.4441837,60.7387931 C87.4441837,60.7387931 81.9229586,73.8507206 79.1335736,81.9000015 C76.356226,89.9145464 71.722641,104.831595 68.0275233,115.999999 C62.0045354,134.204332 56.3661675,150.287003 56.3661675,150.287003 C56.3661675,150.287003 52.032094,149.278951 49.87028,149.365342 C41.5156853,149.699214 24.5114599,152.498973 24.5114599,152.498973 C24.5114599,152.498973 23.3614422,148.18244 23.0964134,143.651064 C22.8095367,138.746142 23.3953989,133.406126 23.0964133,127.987206 C22.5245948,117.623377 21.3758841,89.1808571 21.3758841,89.1808571 C21.3758841,89.1808571 21.1926019,80.0996113 21.3758846,76.5587059 C21.766111,69.0197711 23.0964128,55.9413365 23.0964128,55.9413365 C23.0964128,55.9413365 20.032112,54.9734645 18.5882303,55.0005584 Z M90.7468632,98.460073 C89.7447476,104.103816 89,118.480917 89,118.480917 C89,118.480917 96.8793148,119.9637 101.5,119.999648 C104.767177,120.025066 112.663587,118.665016 112.663587,118.665016 C112.663587,118.665016 115.015922,114.418967 113.478812,106.928624 C112.679391,103.033042 108.598418,95.3434432 107.330007,93.121204 C105.012702,89.0613134 94.5898238,87 94.5898238,87 C94.5898238,87 91.6080219,93.6101765 90.7468632,98.460073 Z" id="LA" fill="#EEA73D" sketch:type="MSShapeGroup"></path>
    </g>
</svg>